<svg xmlns="http://www.w3.org/2000/svg" xmlns:xlink="http://www.w3.org/1999/xlink" width="500" zoomAndPan="magnify" viewBox="0 0 375 374.999991" height="500" preserveAspectRatio="xMidYMid meet" version="1.0"><defs><g/></defs><path fill="#ffffff" d="M 140.617188 117.976562 C 142.085938 118.539062 143.554688 118.765625 145.023438 118.765625 C 147.054688 118.765625 149.199219 118.3125 151.234375 117.296875 C 155.414062 115.152344 158.6875 111.085938 160.15625 106.003906 C 162.867188 96.515625 158.914062 86.914062 151.121094 84.089844 C 147.734375 82.847656 143.890625 83.074219 140.503906 84.769531 C 136.324219 86.914062 133.050781 90.980469 131.582031 96.0625 C 128.757812 105.4375 132.824219 115.039062 140.617188 117.976562 Z M 139.148438 98.210938 C 140.050781 95.273438 141.859375 92.789062 144.003906 91.769531 C 144.683594 91.433594 145.585938 91.09375 146.601562 91.09375 C 147.167969 91.09375 147.734375 91.207031 148.296875 91.433594 C 152.136719 92.789062 154.058594 98.433594 152.476562 103.742188 C 151.574219 106.679688 149.765625 109.164062 147.621094 110.183594 C 146.601562 110.746094 145.023438 111.199219 143.328125 110.519531 C 139.488281 109.164062 137.566406 103.519531 139.148438 98.210938 Z M 139.148438 98.210938 " fill-opacity="1" fill-rule="nonzero"/><path fill="#ffffff" d="M 116.332031 115.378906 C 116.445312 115.378906 116.671875 115.378906 116.785156 115.378906 C 119.835938 115.265625 122.769531 113.796875 124.917969 111.425781 C 127.742188 108.375 129.097656 103.855469 128.871094 99.226562 C 128.304688 90.527344 122.207031 83.976562 114.976562 84.316406 C 111.925781 84.429688 108.992188 85.898438 106.84375 88.269531 C 104.019531 91.320312 102.664062 95.835938 102.890625 100.46875 C 103.457031 108.941406 109.21875 115.378906 116.332031 115.378906 Z M 112.605469 93.578125 C 113.171875 93.011719 114.074219 92.222656 115.203125 92.222656 C 115.203125 92.222656 115.316406 92.222656 115.316406 92.222656 C 118.027344 92.222656 120.625 95.722656 120.851562 99.789062 C 120.964844 102.277344 120.285156 104.648438 118.929688 106.230469 C 118.367188 106.792969 117.460938 107.585938 116.332031 107.585938 C 113.621094 107.695312 110.910156 104.195312 110.683594 100.015625 C 110.570312 97.417969 111.25 95.046875 112.605469 93.578125 Z M 112.605469 93.578125 " fill-opacity="1" fill-rule="nonzero"/><path fill="#ffffff" d="M 86.402344 121.023438 C 88.09375 121.816406 89.789062 122.269531 91.484375 122.269531 C 92.613281 122.269531 93.855469 122.042969 94.984375 121.703125 C 101.421875 119.445312 104.359375 111.3125 101.648438 103.632812 C 100.179688 99.453125 97.242188 96.0625 93.742188 94.257812 C 90.917969 92.902344 87.871094 92.675781 85.160156 93.691406 C 78.71875 95.949219 75.785156 104.082031 78.496094 111.761719 C 79.960938 115.941406 82.785156 119.332031 86.402344 121.023438 Z M 87.757812 101.03125 C 88.09375 100.921875 88.320312 100.921875 88.660156 100.921875 C 89.226562 100.921875 89.902344 101.144531 90.242188 101.371094 C 91.933594 102.164062 93.402344 103.96875 94.195312 106.230469 C 95.550781 110.070312 94.308594 113.570312 92.386719 114.25 C 91.484375 114.585938 90.578125 114.25 89.902344 114.023438 C 88.207031 113.230469 86.738281 111.425781 85.949219 109.164062 C 84.59375 105.210938 85.835938 101.824219 87.757812 101.03125 Z M 87.757812 101.03125 " fill-opacity="1" fill-rule="nonzero"/><path fill="#ffffff" d="M 69.007812 134.691406 C 69.570312 134.804688 70.136719 134.804688 70.699219 134.804688 C 73.074219 134.804688 75.21875 134.128906 77.027344 132.660156 C 81.996094 128.820312 82.671875 121.023438 78.382812 115.265625 C 76.121094 112.214844 72.847656 110.183594 69.34375 109.617188 C 66.410156 109.164062 63.585938 109.957031 61.324219 111.648438 C 56.355469 115.492188 55.679688 123.285156 59.96875 129.042969 C 62.230469 132.09375 65.503906 134.128906 69.007812 134.691406 Z M 66.070312 117.976562 C 66.523438 117.636719 67.199219 117.523438 67.652344 117.523438 C 67.878906 117.523438 67.988281 117.523438 68.214844 117.523438 C 69.570312 117.75 71.039062 118.652344 71.941406 120.007812 C 73.636719 122.269531 73.75 125.316406 72.167969 126.445312 C 71.492188 127.011719 70.589844 127.011719 70.023438 126.898438 C 68.667969 126.671875 67.199219 125.769531 66.296875 124.414062 C 64.601562 122.15625 64.601562 119.105469 66.070312 117.976562 Z M 66.070312 117.976562 " fill-opacity="1" fill-rule="nonzero"/><path fill="#ffffff" d="M 60.648438 133.5625 C 57.597656 131.980469 53.984375 131.753906 50.820312 132.773438 C 47.996094 133.789062 45.738281 135.707031 44.382812 138.304688 C 41.558594 143.953125 44.382812 151.070312 50.484375 154.121094 C 52.289062 155.023438 54.324219 155.476562 56.355469 155.476562 C 57.710938 155.476562 59.066406 155.25 60.308594 154.796875 C 63.132812 153.78125 65.390625 151.859375 66.746094 149.261719 C 69.457031 143.726562 66.746094 136.613281 60.648438 133.5625 Z M 59.632812 145.875 C 59.179688 146.777344 58.390625 147.230469 57.824219 147.457031 C 56.695312 147.792969 55.339844 147.679688 54.097656 147.117188 C 51.839844 145.988281 50.707031 143.613281 51.613281 141.808594 C 52.0625 140.90625 52.855469 140.453125 53.417969 140.226562 C 53.871094 140.113281 54.324219 140 54.773438 140 C 55.566406 140 56.355469 140.226562 57.148438 140.566406 C 59.292969 141.695312 60.421875 144.179688 59.632812 145.875 Z M 59.632812 145.875 " fill-opacity="1" fill-rule="nonzero"/><path fill="#ffffff" d="M 220.359375 52.125 C 196.640625 52.125 174.050781 59.691406 155.300781 74.152344 C 153.605469 75.507812 153.265625 77.992188 154.621094 79.683594 C 155.976562 81.378906 158.464844 81.71875 160.15625 80.363281 C 177.550781 67.035156 198.449219 59.917969 220.359375 59.917969 C 221.488281 59.917969 222.730469 59.917969 223.859375 60.03125 C 216.972656 64.324219 213.921875 69.40625 211.324219 73.699219 C 209.628906 76.523438 208.160156 78.894531 205.902344 80.816406 C 201.269531 84.769531 193.136719 85.332031 187.039062 84.542969 C 180.601562 83.75 171.113281 84.992188 166.144531 88.835938 C 164.449219 90.191406 164.109375 92.675781 165.464844 94.367188 C 166.257812 95.386719 167.386719 95.949219 168.628906 95.949219 C 169.417969 95.949219 170.324219 95.722656 171 95.160156 C 173.710938 93.011719 180.828125 91.769531 186.136719 92.449219 C 189.863281 92.902344 202.851562 93.917969 211.097656 86.800781 C 214.261719 84.089844 216.292969 80.929688 218.101562 77.765625 C 221.714844 71.777344 225.214844 66.132812 238.65625 62.066406 C 238.996094 61.953125 239.222656 61.839844 239.449219 61.726562 C 249.613281 63.757812 259.328125 67.261719 268.136719 72.117188 C 264.976562 72.683594 261.132812 73.585938 256.617188 74.941406 C 242.386719 79.460938 235.382812 90.640625 228.71875 101.484375 C 225.328125 107.019531 222.054688 112.214844 217.988281 116.394531 C 210.984375 123.621094 200.480469 122.71875 190.429688 121.136719 C 180.261719 119.558594 170.773438 122.15625 164.335938 128.027344 C 162.753906 129.496094 162.640625 131.980469 164.109375 133.5625 C 164.902344 134.351562 165.917969 134.804688 167.046875 134.804688 C 167.949219 134.804688 168.96875 134.464844 169.757812 133.789062 C 174.390625 129.496094 181.617188 127.6875 189.410156 128.820312 C 197.769531 130.0625 213.242188 132.433594 223.75 121.703125 C 228.492188 116.847656 232.105469 111.085938 235.609375 105.4375 C 241.820312 95.386719 247.695312 85.898438 259.101562 82.285156 C 271.976562 78.21875 278.527344 79.121094 278.753906 79.121094 C 278.980469 79.121094 279.320312 79.234375 279.546875 79.234375 C 286.660156 84.542969 293.097656 90.867188 298.632812 97.871094 C 294.117188 98.097656 287.339844 99.113281 278.191406 102.164062 C 261.8125 107.472656 253.792969 120.6875 246.113281 133.449219 C 242.160156 140.113281 238.320312 146.324219 233.460938 151.296875 C 224.992188 159.992188 212.792969 158.976562 200.933594 157.167969 C 189.296875 155.363281 178.34375 158.296875 171 165.1875 C 169.417969 166.65625 169.304688 169.140625 170.773438 170.722656 C 171.566406 171.515625 172.582031 171.964844 173.597656 171.964844 C 174.613281 171.964844 175.519531 171.625 176.308594 170.835938 C 181.84375 165.640625 190.429688 163.382812 199.578125 164.851562 C 209.175781 166.316406 227.023438 169.027344 238.996094 156.605469 C 244.417969 150.957031 248.597656 144.066406 252.664062 137.289062 C 260.003906 125.203125 266.78125 113.910156 280.449219 109.390625 C 295.695312 104.421875 303.378906 105.550781 303.605469 105.664062 C 303.828125 105.664062 303.941406 105.664062 304.167969 105.664062 C 309.25 113.570312 313.203125 122.378906 315.800781 131.640625 C 312.753906 131.867188 308.574219 132.433594 303.941406 133.789062 C 291.96875 137.175781 283.273438 143.953125 278.753906 153.328125 C 277.964844 154.910156 277.285156 156.492188 276.496094 158.074219 C 268.023438 176.371094 261.8125 189.585938 222.503906 190.488281 C 174.953125 191.617188 167.273438 215.453125 166.933594 216.46875 C 166.257812 218.5 167.5 220.648438 169.53125 221.324219 C 169.871094 221.4375 170.324219 221.550781 170.660156 221.550781 C 172.355469 221.550781 173.9375 220.535156 174.390625 218.839844 C 174.5 218.613281 181.277344 199.414062 222.617188 198.394531 C 266.78125 197.265625 274.574219 180.664062 283.5 161.347656 C 284.175781 159.765625 284.96875 158.296875 285.757812 156.71875 C 292.648438 142.371094 310.71875 139.886719 317.496094 139.4375 C 318.738281 145.648438 319.417969 152.085938 319.417969 158.636719 C 319.417969 162.027344 319.191406 165.414062 318.851562 168.804688 C 309.929688 170.496094 305.523438 178.179688 300.894531 186.421875 C 293.097656 200.203125 283.386719 217.371094 247.128906 219.519531 C 223.410156 220.871094 206.691406 227.085938 197.316406 238.042969 C 192.460938 243.800781 190.765625 249.5625 190.316406 253.289062 C 183.3125 251.03125 176.535156 248.09375 170.324219 244.480469 C 153.15625 218.050781 156.769531 201.105469 160.722656 183.261719 C 162.867188 173.320312 165.238281 163.042969 163.320312 151.410156 C 161.625 140.453125 156.089844 131.53125 147.28125 125.65625 C 135.421875 117.75 119.609375 116.734375 109.21875 119.21875 C 84.480469 125.203125 74.765625 138.417969 71.265625 145.875 C 65.390625 157.960938 66.183594 172.417969 73.75 188.796875 C 97.355469 240.414062 156.089844 249.789062 165.578125 251.03125 C 181.503906 260.519531 200.140625 265.941406 220.019531 265.941406 C 279.09375 265.941406 327.097656 217.9375 327.097656 158.863281 C 327.4375 100.242188 279.433594 52.125 220.359375 52.125 Z M 81.316406 185.859375 C 74.878906 171.738281 73.976562 159.542969 78.71875 149.714844 C 85.949219 134.917969 104.019531 129.15625 111.476562 127.351562 C 114.074219 126.671875 117.125 126.332031 120.511719 126.332031 C 127.964844 126.332031 136.550781 128.140625 143.328125 132.660156 C 150.332031 137.289062 154.507812 144.179688 155.863281 153.101562 C 157.445312 163.269531 155.414062 172.417969 153.265625 182.019531 C 149.992188 196.703125 146.492188 212.964844 155.863281 234.539062 C 134.628906 216.355469 121.078125 189.359375 121.078125 159.203125 C 121.078125 157.054688 119.269531 155.25 117.125 155.25 C 114.976562 155.25 113.171875 157.054688 113.171875 159.203125 C 113.171875 191.28125 127.402344 220.195312 149.878906 239.847656 C 129.433594 233.976562 96.679688 219.515625 81.316406 185.859375 Z M 220.359375 258.371094 C 212.792969 258.371094 205.335938 257.46875 198.335938 255.886719 C 198.449219 253.628906 199.351562 248.660156 203.644531 243.6875 C 211.324219 234.652344 226.683594 229.230469 247.804688 227.988281 C 288.355469 225.617188 299.652344 205.511719 308.007812 190.828125 C 311.625 184.390625 314.222656 180.097656 317.722656 178.179688 C 308.914062 223.808594 268.589844 258.371094 220.359375 258.371094 Z M 220.359375 258.371094 " fill-opacity="1" fill-rule="nonzero"/><g fill="#ffffff" fill-opacity="1"><g transform="translate(82.800586, 317.663666)"><g><path d="M 20.046875 0 L 3.59375 0 L 3.59375 -28.5625 L 20.046875 -28.5625 L 20.046875 -23.59375 L 9.65625 -23.59375 L 9.65625 -17.328125 L 19.3125 -17.328125 L 19.3125 -12.359375 L 9.65625 -12.359375 L 9.65625 -5 L 20.046875 -5 Z M 20.046875 0 "/></g></g></g><g fill="#ffffff" fill-opacity="1"><g transform="translate(113.484977, 317.663666)"><g><path d="M 15.71875 -23.921875 C 13.445312 -23.921875 11.6875 -23.066406 10.4375 -21.359375 C 9.1875 -19.648438 8.5625 -17.265625 8.5625 -14.203125 C 8.5625 -7.835938 10.945312 -4.65625 15.71875 -4.65625 C 17.726562 -4.65625 20.160156 -5.15625 23.015625 -6.15625 L 23.015625 -1.078125 C 20.671875 -0.0976562 18.050781 0.390625 15.15625 0.390625 C 11 0.390625 7.820312 -0.867188 5.625 -3.390625 C 3.425781 -5.910156 2.328125 -9.523438 2.328125 -14.234375 C 2.328125 -17.203125 2.863281 -19.800781 3.9375 -22.03125 C 5.019531 -24.269531 6.570312 -25.984375 8.59375 -27.171875 C 10.625 -28.367188 13 -28.96875 15.71875 -28.96875 C 18.5 -28.96875 21.285156 -28.296875 24.078125 -26.953125 L 22.125 -22.03125 C 21.0625 -22.539062 19.988281 -22.984375 18.90625 -23.359375 C 17.820312 -23.734375 16.757812 -23.921875 15.71875 -23.921875 Z M 15.71875 -23.921875 "/></g></g></g><g fill="#ffffff" fill-opacity="1"><g transform="translate(147.255363, 317.663666)"><g><path d="M 29.515625 -14.3125 C 29.515625 -9.59375 28.34375 -5.960938 26 -3.421875 C 23.65625 -0.878906 20.296875 0.390625 15.921875 0.390625 C 11.546875 0.390625 8.1875 -0.878906 5.84375 -3.421875 C 3.5 -5.960938 2.328125 -9.609375 2.328125 -14.359375 C 2.328125 -19.109375 3.5 -22.734375 5.84375 -25.234375 C 8.195312 -27.742188 11.566406 -29 15.953125 -29 C 20.347656 -29 23.707031 -27.734375 26.03125 -25.203125 C 28.351562 -22.679688 29.515625 -19.050781 29.515625 -14.3125 Z M 8.671875 -14.3125 C 8.671875 -11.125 9.273438 -8.722656 10.484375 -7.109375 C 11.703125 -5.492188 13.515625 -4.6875 15.921875 -4.6875 C 20.753906 -4.6875 23.171875 -7.894531 23.171875 -14.3125 C 23.171875 -20.75 20.765625 -23.96875 15.953125 -23.96875 C 13.546875 -23.96875 11.726562 -23.15625 10.5 -21.53125 C 9.28125 -19.914062 8.671875 -17.507812 8.671875 -14.3125 Z M 8.671875 -14.3125 "/></g></g></g><g fill="#ffffff" fill-opacity="1"><g transform="translate(187.373518, 317.663666)"><g><path d="M 31.40625 0 L 24.515625 0 L 20.640625 -15 C 20.503906 -15.53125 20.257812 -16.632812 19.90625 -18.3125 C 19.5625 -19.988281 19.363281 -21.113281 19.3125 -21.6875 C 19.238281 -20.976562 19.046875 -19.84375 18.734375 -18.28125 C 18.421875 -16.726562 18.179688 -15.625 18.015625 -14.96875 L 14.15625 0 L 7.28125 0 L 0 -28.5625 L 5.953125 -28.5625 L 9.609375 -12.96875 C 10.242188 -10.09375 10.707031 -7.597656 11 -5.484375 C 11.070312 -6.234375 11.25 -7.382812 11.53125 -8.9375 C 11.8125 -10.488281 12.078125 -11.695312 12.328125 -12.5625 L 16.484375 -28.5625 L 22.203125 -28.5625 L 26.375 -12.5625 C 26.550781 -11.84375 26.773438 -10.75 27.046875 -9.28125 C 27.328125 -7.8125 27.535156 -6.546875 27.671875 -5.484375 C 27.804688 -6.503906 28.015625 -7.769531 28.296875 -9.28125 C 28.585938 -10.800781 28.847656 -12.03125 29.078125 -12.96875 L 32.71875 -28.5625 L 38.671875 -28.5625 Z M 31.40625 0 "/></g></g></g><g fill="#ffffff" fill-opacity="1"><g transform="translate(234.327734, 317.663666)"><g><path d="M 21.078125 0 L 19 -6.796875 L 8.59375 -6.796875 L 6.53125 0 L 0 0 L 10.078125 -28.671875 L 17.484375 -28.671875 L 27.59375 0 Z M 17.5625 -11.875 C 15.644531 -18.03125 14.566406 -21.507812 14.328125 -22.3125 C 14.085938 -23.125 13.914062 -23.765625 13.8125 -24.234375 C 13.382812 -22.566406 12.15625 -18.445312 10.125 -11.875 Z M 17.5625 -11.875 "/></g></g></g><g fill="#ffffff" fill-opacity="1"><g transform="translate(270.207542, 317.663666)"><g><path d="M 12.484375 -16.796875 L 18.4375 -28.5625 L 24.96875 -28.5625 L 15.484375 -11.109375 L 15.484375 0 L 9.46875 0 L 9.46875 -10.921875 L 0 -28.5625 L 6.5625 -28.5625 Z M 12.484375 -16.796875 "/></g></g></g></svg>