<svg xmlns="http://www.w3.org/2000/svg" xmlns:xlink="http://www.w3.org/1999/xlink" width="500" zoomAndPan="magnify" viewBox="0 0 375 374.999991" height="500" preserveAspectRatio="xMidYMid meet" version="1.0"><path fill="#ffffff" d="M 131.070312 135.414062 C 132.9375 136.132812 134.804688 136.417969 136.675781 136.417969 C 139.261719 136.417969 141.992188 135.84375 144.578125 134.550781 C 149.894531 131.820312 154.0625 126.648438 155.929688 120.179688 C 159.378906 108.109375 154.347656 95.894531 144.433594 92.304688 C 140.121094 90.722656 135.238281 91.011719 130.925781 93.164062 C 125.609375 95.894531 121.441406 101.070312 119.574219 107.535156 C 115.980469 119.460938 121.15625 131.675781 131.070312 135.414062 Z M 129.203125 110.265625 C 130.351562 106.53125 132.652344 103.367188 135.378906 102.074219 C 136.242188 101.644531 137.390625 101.210938 138.6875 101.210938 C 139.40625 101.210938 140.121094 101.355469 140.839844 101.644531 C 145.726562 103.367188 148.171875 110.554688 146.160156 117.308594 C 145.007812 121.042969 142.710938 124.203125 139.980469 125.5 C 138.6875 126.214844 136.675781 126.792969 134.519531 125.929688 C 129.632812 124.203125 127.191406 117.019531 129.203125 110.265625 Z M 129.203125 110.265625 " fill-opacity="1" fill-rule="nonzero"/><path fill="#ffffff" d="M 100.175781 132.109375 C 100.316406 132.109375 100.605469 132.109375 100.75 132.109375 C 104.628906 131.964844 108.363281 130.097656 111.09375 127.078125 C 114.6875 123.199219 116.414062 117.449219 116.125 111.558594 C 115.40625 100.496094 107.648438 92.160156 98.449219 92.589844 C 94.570312 92.734375 90.832031 94.601562 88.101562 97.621094 C 84.511719 101.5 82.785156 107.25 83.074219 113.140625 C 83.792969 123.917969 91.121094 132.109375 100.175781 132.109375 Z M 95.433594 104.375 C 96.152344 103.65625 97.300781 102.648438 98.738281 102.648438 C 98.738281 102.648438 98.882812 102.648438 98.882812 102.648438 C 102.328125 102.648438 105.636719 107.105469 105.921875 112.277344 C 106.066406 115.4375 105.203125 118.457031 103.480469 120.46875 C 102.761719 121.1875 101.609375 122.191406 100.175781 122.191406 C 96.726562 122.335938 93.277344 117.882812 92.988281 112.566406 C 92.84375 109.261719 93.707031 106.242188 95.433594 104.375 Z M 95.433594 104.375 " fill-opacity="1" fill-rule="nonzero"/><path fill="#ffffff" d="M 62.09375 139.292969 C 64.25 140.300781 66.40625 140.875 68.558594 140.875 C 69.996094 140.875 71.578125 140.585938 73.015625 140.15625 C 81.207031 137.28125 84.941406 126.933594 81.492188 117.164062 C 79.625 111.847656 75.890625 107.535156 71.433594 105.238281 C 67.839844 103.511719 63.960938 103.222656 60.511719 104.519531 C 52.320312 107.390625 48.585938 117.738281 52.035156 127.511719 C 53.902344 132.828125 57.496094 137.136719 62.09375 139.292969 Z M 63.816406 113.859375 C 64.25 113.714844 64.535156 113.714844 64.96875 113.714844 C 65.6875 113.714844 66.546875 114.003906 66.980469 114.289062 C 69.136719 115.296875 71.003906 117.59375 72.007812 120.46875 C 73.734375 125.355469 72.152344 129.808594 69.710938 130.671875 C 68.558594 131.101562 67.410156 130.671875 66.546875 130.382812 C 64.394531 129.378906 62.523438 127.078125 61.519531 124.203125 C 59.792969 119.175781 61.375 114.863281 63.816406 113.859375 Z M 63.816406 113.859375 " fill-opacity="1" fill-rule="nonzero"/><path fill="#ffffff" d="M 39.964844 156.679688 C 40.683594 156.824219 41.402344 156.824219 42.121094 156.824219 C 45.136719 156.824219 47.867188 155.960938 50.167969 154.09375 C 56.488281 149.207031 57.351562 139.292969 51.890625 131.964844 C 49.015625 128.085938 44.851562 125.5 40.394531 124.78125 C 36.660156 124.203125 33.066406 125.210938 30.191406 127.367188 C 23.871094 132.253906 23.007812 142.167969 28.46875 149.496094 C 31.34375 153.375 35.507812 155.960938 39.964844 156.679688 Z M 36.226562 135.414062 C 36.800781 134.980469 37.664062 134.839844 38.238281 134.839844 C 38.527344 134.839844 38.671875 134.839844 38.957031 134.839844 C 40.683594 135.125 42.550781 136.277344 43.699219 138 C 45.855469 140.875 46 144.753906 43.988281 146.191406 C 43.125 146.910156 41.976562 146.910156 41.257812 146.765625 C 39.53125 146.476562 37.664062 145.328125 36.515625 143.605469 C 34.359375 140.730469 34.359375 136.851562 36.226562 135.414062 Z M 36.226562 135.414062 " fill-opacity="1" fill-rule="nonzero"/><path fill="#ffffff" d="M 29.332031 155.242188 C 25.449219 153.230469 20.851562 152.945312 16.828125 154.238281 C 13.234375 155.53125 10.363281 157.972656 8.636719 161.28125 C 5.042969 168.464844 8.636719 177.515625 16.398438 181.398438 C 18.695312 182.546875 21.28125 183.121094 23.871094 183.121094 C 25.59375 183.121094 27.320312 182.835938 28.898438 182.257812 C 32.492188 180.964844 35.367188 178.523438 37.089844 175.21875 C 40.539062 168.175781 37.089844 159.125 29.332031 155.242188 Z M 28.035156 170.90625 C 27.460938 172.058594 26.457031 172.632812 25.738281 172.917969 C 24.300781 173.351562 22.578125 173.207031 20.996094 172.488281 C 18.121094 171.050781 16.683594 168.035156 17.835938 165.734375 C 18.410156 164.585938 19.414062 164.007812 20.132812 163.722656 C 20.707031 163.578125 21.28125 163.433594 21.859375 163.433594 C 22.863281 163.433594 23.871094 163.722656 24.875 164.152344 C 27.605469 165.589844 29.042969 168.75 28.035156 170.90625 Z M 28.035156 170.90625 " fill-opacity="1" fill-rule="nonzero"/><path fill="#ffffff" d="M 232.523438 51.636719 C 202.34375 51.636719 173.605469 61.265625 149.75 79.65625 C 147.59375 81.382812 147.164062 84.542969 148.886719 86.699219 C 150.613281 88.855469 153.773438 89.285156 155.929688 87.5625 C 178.058594 70.605469 204.644531 61.550781 232.523438 61.550781 C 233.957031 61.550781 235.539062 61.550781 236.976562 61.695312 C 228.210938 67.15625 224.332031 73.621094 221.027344 79.082031 C 218.871094 82.675781 217.003906 85.691406 214.128906 88.136719 C 208.238281 93.164062 197.890625 93.882812 190.128906 92.878906 C 181.941406 91.871094 169.867188 93.453125 163.546875 98.339844 C 161.390625 100.0625 160.960938 103.222656 162.683594 105.378906 C 163.691406 106.671875 165.125 107.390625 166.707031 107.390625 C 167.714844 107.390625 168.863281 107.105469 169.726562 106.386719 C 173.175781 103.65625 182.226562 102.074219 188.980469 102.9375 C 193.722656 103.511719 210.25 104.804688 220.738281 95.753906 C 224.761719 92.304688 227.347656 88.28125 229.648438 84.257812 C 234.246094 76.640625 238.699219 69.457031 255.800781 64.28125 C 256.234375 64.136719 256.519531 63.996094 256.808594 63.851562 C 269.742188 66.4375 282.097656 70.890625 293.308594 77.070312 C 289.285156 77.789062 284.398438 78.9375 278.648438 80.664062 C 260.542969 86.410156 251.632812 100.636719 243.15625 114.433594 C 238.84375 121.472656 234.675781 128.085938 229.503906 133.402344 C 220.59375 142.597656 207.230469 141.449219 194.441406 139.4375 C 181.507812 137.425781 169.4375 140.730469 161.246094 148.203125 C 159.234375 150.070312 159.089844 153.230469 160.960938 155.242188 C 161.964844 156.25 163.257812 156.824219 164.695312 156.824219 C 165.84375 156.824219 167.136719 156.394531 168.144531 155.53125 C 174.035156 150.070312 183.234375 147.773438 193.148438 149.207031 C 203.78125 150.789062 223.46875 153.808594 236.832031 140.15625 C 242.867188 133.976562 247.464844 126.648438 251.921875 119.460938 C 259.824219 106.671875 267.296875 94.601562 281.8125 90.003906 C 298.191406 84.832031 306.527344 85.980469 306.816406 85.980469 C 307.101562 85.980469 307.535156 86.125 307.820312 86.125 C 316.875 92.878906 325.066406 100.925781 332.105469 109.835938 C 326.359375 110.121094 317.734375 111.414062 306.097656 115.296875 C 285.261719 122.050781 275.058594 138.863281 265.285156 155.101562 C 260.257812 163.578125 255.371094 171.480469 249.191406 177.804688 C 238.414062 188.871094 222.894531 187.578125 207.804688 185.277344 C 193.003906 182.976562 179.066406 186.714844 169.726562 195.480469 C 167.714844 197.347656 167.570312 200.507812 169.4375 202.519531 C 170.445312 203.527344 171.738281 204.101562 173.03125 204.101562 C 174.324219 204.101562 175.472656 203.671875 176.480469 202.664062 C 183.519531 196.054688 194.441406 193.179688 206.082031 195.050781 C 218.296875 196.917969 241 200.367188 256.234375 184.558594 C 263.128906 177.375 268.445312 168.609375 273.621094 159.984375 C 282.960938 144.609375 291.582031 130.238281 308.96875 124.492188 C 328.371094 118.167969 338.140625 119.605469 338.429688 119.75 C 338.714844 119.75 338.859375 119.75 339.148438 119.75 C 345.613281 129.808594 350.644531 141.019531 353.949219 152.800781 C 350.070312 153.089844 344.75 153.808594 338.859375 155.53125 C 323.628906 159.84375 312.5625 168.464844 306.816406 180.390625 C 305.808594 182.402344 304.945312 184.414062 303.941406 186.425781 C 293.164062 209.707031 285.261719 226.519531 235.253906 227.667969 C 174.753906 229.105469 164.984375 259.425781 164.550781 260.71875 C 163.691406 263.304688 165.269531 266.035156 167.855469 266.898438 C 168.289062 267.042969 168.863281 267.1875 169.292969 267.1875 C 171.449219 267.1875 173.460938 265.894531 174.035156 263.738281 C 174.179688 263.449219 182.800781 239.019531 235.394531 237.726562 C 291.582031 236.289062 301.496094 215.167969 312.851562 190.59375 C 313.710938 188.582031 314.71875 186.714844 315.722656 184.703125 C 324.488281 166.453125 347.480469 163.292969 356.105469 162.714844 C 357.683594 170.621094 358.546875 178.8125 358.546875 187.144531 C 358.546875 191.457031 358.257812 195.765625 357.828125 200.078125 C 346.476562 202.234375 340.871094 212.003906 334.980469 222.496094 C 325.066406 240.027344 312.707031 261.871094 266.578125 264.601562 C 236.402344 266.324219 215.132812 274.226562 203.207031 288.167969 C 197.027344 295.496094 194.871094 302.824219 194.296875 307.566406 C 185.386719 304.691406 176.765625 300.957031 168.863281 296.355469 C 147.019531 262.730469 151.617188 241.175781 156.648438 218.472656 C 159.378906 205.828125 162.394531 192.75 159.953125 177.949219 C 157.796875 164.007812 150.757812 152.65625 139.546875 145.183594 C 124.460938 135.125 104.339844 133.832031 91.121094 136.992188 C 59.652344 144.609375 47.292969 161.421875 42.839844 170.90625 C 35.367188 186.28125 36.371094 204.675781 46 225.511719 C 76.03125 291.183594 150.757812 303.109375 162.828125 304.691406 C 183.089844 316.761719 206.800781 323.660156 232.089844 323.660156 C 307.246094 323.660156 368.320312 262.589844 368.320312 187.433594 C 368.75 112.851562 307.675781 51.636719 232.523438 51.636719 Z M 55.628906 221.777344 C 47.4375 203.816406 46.285156 188.296875 52.320312 175.792969 C 61.519531 156.96875 84.511719 149.640625 93.996094 147.339844 C 97.300781 146.476562 101.179688 146.046875 105.492188 146.046875 C 114.976562 146.046875 125.898438 148.347656 134.519531 154.09375 C 143.429688 159.984375 148.746094 168.75 150.46875 180.105469 C 152.480469 193.035156 149.894531 204.675781 147.164062 216.890625 C 142.996094 235.574219 138.542969 256.265625 150.46875 283.710938 C 123.453125 260.574219 106.210938 226.230469 106.210938 187.863281 C 106.210938 185.132812 103.910156 182.835938 101.179688 182.835938 C 98.449219 182.835938 96.152344 185.132812 96.152344 187.863281 C 96.152344 228.675781 114.257812 265.460938 142.851562 290.464844 C 116.84375 282.992188 75.171875 264.601562 55.628906 221.777344 Z M 232.523438 314.03125 C 222.894531 314.03125 213.410156 312.882812 204.5 310.871094 C 204.644531 307.996094 205.792969 301.675781 211.253906 295.351562 C 221.027344 283.855469 240.570312 276.957031 267.441406 275.378906 C 319.03125 272.359375 333.398438 246.78125 344.03125 228.101562 C 348.632812 219.910156 351.9375 214.449219 356.390625 212.003906 C 345.183594 270.058594 293.882812 314.03125 232.523438 314.03125 Z M 232.523438 314.03125 " fill-opacity="1" fill-rule="nonzero"/></svg>