<svg xmlns="http://www.w3.org/2000/svg" xmlns:xlink="http://www.w3.org/1999/xlink" width="500" zoomAndPan="magnify" viewBox="0 0 375 374.999991" height="500" preserveAspectRatio="xMidYMid meet" version="1.0"><defs><g/></defs><path fill="#00b5ee" d="M 218.835938 73.707031 C 176.761719 79.972656 161.320312 99.21875 149.460938 138.386719 C 155.277344 147.335938 159.308594 153.9375 159.308594 170.054688 C 159.308594 186.167969 153.601562 208.992188 150.019531 220.96875 C 149.234375 223.539062 161.992188 245.472656 158.972656 245.472656 C 176.203125 260.578125 198.136719 262.480469 223.089844 262.480469 C 276.800781 262.480469 317.757812 217.945312 317.757812 165.6875 C 317.644531 113.429688 271.878906 65.761719 218.835938 73.707031 Z M 218.835938 73.707031 " fill-opacity="1" fill-rule="nonzero"/><path fill="#8bc248" d="M 84.109375 165.6875 C 84.894531 155.058594 96.980469 138.945312 123.609375 138.945312 C 142.523438 138.945312 150.800781 155.394531 150.800781 172.289062 C 150.800781 189.300781 156.507812 224.773438 152.929688 237.417969 C 149.234375 249.949219 117.566406 231.375 101.34375 211.679688 C 85.230469 191.984375 83.214844 178.894531 84.109375 165.6875 Z M 84.109375 165.6875 " fill-opacity="1" fill-rule="nonzero"/><path fill="#000000" d="M 139.277344 121.824219 C 140.730469 122.382812 142.1875 122.605469 143.640625 122.605469 C 145.65625 122.605469 147.78125 122.160156 149.796875 121.152344 C 153.9375 119.027344 157.179688 114.996094 158.636719 109.960938 C 161.320312 100.5625 157.40625 91.050781 149.683594 88.253906 C 146.328125 87.023438 142.523438 87.246094 139.164062 88.925781 C 135.023438 91.050781 131.78125 95.078125 130.324219 100.117188 C 127.527344 109.402344 131.554688 118.914062 139.277344 121.824219 Z M 137.820312 102.242188 C 138.71875 99.332031 140.507812 96.871094 142.632812 95.863281 C 143.304688 95.527344 144.199219 95.191406 145.207031 95.191406 C 145.765625 95.191406 146.328125 95.304688 146.886719 95.527344 C 150.691406 96.871094 152.59375 102.464844 151.027344 107.722656 C 150.132812 110.632812 148.339844 113.09375 146.214844 114.101562 C 145.207031 114.664062 143.640625 115.109375 141.960938 114.4375 C 138.15625 113.09375 136.253906 107.5 137.820312 102.242188 Z M 137.820312 102.242188 " fill-opacity="1" fill-rule="nonzero"/><path fill="#000000" d="M 115.21875 119.25 C 115.332031 119.25 115.554688 119.25 115.664062 119.25 C 118.6875 119.136719 121.597656 117.683594 123.722656 115.332031 C 126.519531 112.3125 127.863281 107.835938 127.640625 103.25 C 127.078125 94.632812 121.039062 88.140625 113.875 88.476562 C 110.855469 88.589844 107.945312 90.042969 105.820312 92.394531 C 103.019531 95.414062 101.679688 99.890625 101.902344 104.480469 C 102.460938 112.871094 108.167969 119.25 115.21875 119.25 Z M 111.527344 97.652344 C 112.085938 97.09375 112.980469 96.3125 114.097656 96.3125 C 114.097656 96.3125 114.210938 96.3125 114.210938 96.3125 C 116.898438 96.3125 119.46875 99.78125 119.695312 103.808594 C 119.804688 106.269531 119.136719 108.621094 117.792969 110.1875 C 117.234375 110.746094 116.335938 111.527344 115.21875 111.527344 C 112.53125 111.640625 109.847656 108.171875 109.625 104.03125 C 109.511719 101.457031 110.183594 99.109375 111.527344 97.652344 Z M 111.527344 97.652344 " fill-opacity="1" fill-rule="nonzero"/><path fill="#000000" d="M 85.566406 124.84375 C 87.242188 125.628906 88.921875 126.074219 90.601562 126.074219 C 91.71875 126.074219 92.949219 125.851562 94.070312 125.515625 C 100.449219 123.277344 103.355469 115.222656 100.671875 107.613281 C 99.214844 103.472656 96.308594 100.117188 92.839844 98.324219 C 90.039062 96.980469 87.019531 96.757812 84.332031 97.765625 C 77.957031 100.003906 75.046875 108.058594 77.730469 115.667969 C 79.1875 119.808594 81.984375 123.167969 85.566406 124.84375 Z M 86.90625 105.039062 C 87.242188 104.925781 87.46875 104.925781 87.804688 104.925781 C 88.363281 104.925781 89.035156 105.152344 89.371094 105.375 C 91.046875 106.15625 92.503906 107.949219 93.285156 110.1875 C 94.628906 113.992188 93.398438 117.460938 91.496094 118.132812 C 90.601562 118.46875 89.707031 118.132812 89.035156 117.90625 C 87.355469 117.125 85.902344 115.332031 85.117188 113.09375 C 83.773438 109.179688 85.003906 105.820312 86.90625 105.039062 Z M 86.90625 105.039062 " fill-opacity="1" fill-rule="nonzero"/><path fill="#000000" d="M 68.332031 138.386719 C 68.890625 138.496094 69.453125 138.496094 70.011719 138.496094 C 72.359375 138.496094 74.488281 137.824219 76.277344 136.371094 C 81.199219 132.566406 81.871094 124.84375 77.621094 119.136719 C 75.382812 116.117188 72.136719 114.101562 68.667969 113.542969 C 65.757812 113.097656 62.960938 113.878906 60.722656 115.558594 C 55.800781 119.363281 55.128906 127.082031 59.378906 132.789062 C 61.617188 135.8125 64.863281 137.824219 68.332031 138.386719 Z M 65.421875 121.824219 C 65.871094 121.488281 66.542969 121.375 66.988281 121.375 C 67.214844 121.375 67.324219 121.375 67.550781 121.375 C 68.890625 121.601562 70.347656 122.496094 71.242188 123.839844 C 72.921875 126.074219 73.03125 129.097656 71.464844 130.214844 C 70.792969 130.777344 69.898438 130.777344 69.339844 130.664062 C 67.996094 130.441406 66.542969 129.546875 65.648438 128.203125 C 63.96875 125.964844 63.96875 122.941406 65.421875 121.824219 Z M 65.421875 121.824219 " fill-opacity="1" fill-rule="nonzero"/><path fill="#000000" d="M 60.050781 137.265625 C 57.03125 135.699219 53.449219 135.476562 50.316406 136.484375 C 47.519531 137.488281 45.28125 139.390625 43.9375 141.964844 C 41.140625 147.5625 43.9375 154.609375 49.980469 157.632812 C 51.769531 158.527344 53.785156 158.976562 55.800781 158.976562 C 57.140625 158.976562 58.484375 158.75 59.714844 158.304688 C 62.511719 157.296875 64.75 155.394531 66.09375 152.820312 C 68.78125 147.335938 66.09375 140.289062 60.050781 137.265625 Z M 59.042969 149.464844 C 58.597656 150.359375 57.8125 150.804688 57.253906 151.03125 C 56.136719 151.367188 54.792969 151.253906 53.5625 150.695312 C 51.324219 149.574219 50.203125 147.226562 51.101562 145.433594 C 51.546875 144.539062 52.332031 144.09375 52.890625 143.867188 C 53.335938 143.757812 53.785156 143.644531 54.234375 143.644531 C 55.015625 143.644531 55.800781 143.867188 56.582031 144.203125 C 58.707031 145.324219 59.828125 147.785156 59.042969 149.464844 Z M 59.042969 149.464844 " fill-opacity="1" fill-rule="nonzero"/><path fill="#000000" d="M 218.277344 56.585938 C 194.777344 56.585938 172.398438 64.082031 153.824219 78.40625 C 152.144531 79.75 151.808594 82.210938 153.152344 83.890625 C 154.496094 85.566406 156.957031 85.902344 158.636719 84.5625 C 175.867188 71.355469 196.570312 64.308594 218.277344 64.308594 C 219.398438 64.308594 220.628906 64.308594 221.746094 64.417969 C 214.921875 68.671875 211.898438 73.707031 209.328125 77.960938 C 207.648438 80.757812 206.191406 83.105469 203.953125 85.007812 C 199.367188 88.925781 191.308594 89.484375 185.269531 88.703125 C 178.890625 87.917969 169.488281 89.148438 164.566406 92.953125 C 162.886719 94.296875 162.550781 96.757812 163.894531 98.4375 C 164.679688 99.445312 165.796875 100.003906 167.027344 100.003906 C 167.8125 100.003906 168.707031 99.78125 169.378906 99.21875 C 172.0625 97.09375 179.113281 95.863281 184.371094 96.535156 C 188.066406 96.980469 200.933594 97.988281 209.101562 90.941406 C 212.234375 88.253906 214.25 85.121094 216.039062 81.988281 C 219.621094 76.058594 223.089844 70.460938 236.40625 66.433594 C 236.742188 66.320312 236.964844 66.210938 237.1875 66.097656 C 247.261719 68.113281 256.882812 71.582031 265.613281 76.390625 C 262.480469 76.953125 258.675781 77.847656 254.199219 79.191406 C 240.097656 83.664062 233.160156 94.742188 226.558594 105.488281 C 223.203125 110.96875 219.957031 116.117188 215.929688 120.257812 C 208.992188 127.417969 198.582031 126.523438 188.625 124.957031 C 178.554688 123.390625 169.152344 125.964844 162.777344 131.78125 C 161.210938 133.238281 161.097656 135.699219 162.550781 137.265625 C 163.335938 138.050781 164.34375 138.496094 165.460938 138.496094 C 166.355469 138.496094 167.363281 138.160156 168.148438 137.488281 C 172.734375 133.238281 179.898438 131.449219 187.617188 132.566406 C 195.898438 133.796875 211.230469 136.148438 221.636719 125.515625 C 226.335938 120.703125 229.914062 114.996094 233.382812 109.402344 C 239.539062 99.445312 245.359375 90.042969 256.660156 86.464844 C 269.417969 82.433594 275.90625 83.332031 276.128906 83.332031 C 276.355469 83.332031 276.691406 83.441406 276.914062 83.441406 C 283.964844 88.703125 290.34375 94.96875 295.824219 101.90625 C 291.347656 102.128906 284.636719 103.136719 275.570312 106.15625 C 259.34375 111.417969 251.402344 124.507812 243.792969 137.152344 C 239.875 143.757812 236.070312 149.910156 231.257812 154.835938 C 222.867188 163.449219 210.78125 162.445312 199.03125 160.652344 C 187.503906 158.863281 176.652344 161.773438 169.378906 168.597656 C 167.8125 170.054688 167.699219 172.515625 169.152344 174.082031 C 169.9375 174.863281 170.945312 175.3125 171.953125 175.3125 C 172.957031 175.3125 173.855469 174.976562 174.636719 174.191406 C 180.121094 169.046875 188.625 166.808594 197.6875 168.261719 C 207.199219 169.71875 224.878906 172.402344 236.742188 160.09375 C 242.113281 154.5 246.253906 147.671875 250.28125 140.957031 C 257.554688 128.984375 264.269531 117.796875 277.808594 113.320312 C 292.914062 108.394531 300.523438 109.515625 300.75 109.625 C 300.972656 109.625 301.085938 109.625 301.308594 109.625 C 306.34375 117.460938 310.261719 126.1875 312.832031 135.363281 C 309.8125 135.585938 305.671875 136.148438 301.085938 137.488281 C 289.222656 140.847656 280.605469 147.5625 276.128906 156.847656 C 275.347656 158.414062 274.675781 159.980469 273.890625 161.546875 C 265.5 179.675781 259.34375 192.769531 220.40625 193.664062 C 173.292969 194.78125 165.683594 218.394531 165.347656 219.402344 C 164.679688 221.414062 165.910156 223.542969 167.921875 224.210938 C 168.257812 224.324219 168.707031 224.4375 169.042969 224.4375 C 170.722656 224.4375 172.289062 223.429688 172.734375 221.75 C 172.847656 221.527344 179.5625 202.503906 220.515625 201.496094 C 264.269531 200.378906 271.992188 183.929688 280.832031 164.792969 C 281.5 163.226562 282.285156 161.773438 283.066406 160.207031 C 289.894531 145.996094 307.796875 143.53125 314.511719 143.085938 C 315.742188 149.238281 316.414062 155.617188 316.414062 162.109375 C 316.414062 165.464844 316.191406 168.820312 315.855469 172.179688 C 307.015625 173.855469 302.652344 181.464844 298.0625 189.636719 C 290.34375 203.289062 280.71875 220.296875 244.796875 222.421875 C 221.300781 223.765625 204.738281 229.917969 195.449219 240.773438 C 190.640625 246.480469 188.960938 252.1875 188.511719 255.878906 C 181.574219 253.640625 174.859375 250.734375 168.707031 247.152344 C 151.699219 220.96875 155.277344 204.183594 159.195312 186.503906 C 161.320312 176.65625 163.671875 166.472656 161.769531 154.945312 C 160.089844 144.09375 154.605469 135.25 145.878906 129.433594 C 134.128906 121.601562 118.464844 120.59375 108.167969 123.054688 C 83.664062 128.984375 74.039062 142.078125 70.570312 149.464844 C 64.75 161.4375 65.535156 175.757812 73.03125 191.984375 C 96.417969 243.125 154.605469 252.410156 164.007812 253.640625 C 179.785156 263.042969 198.25 268.414062 217.941406 268.414062 C 276.464844 268.414062 324.023438 220.855469 324.023438 162.332031 C 324.359375 104.253906 276.800781 56.585938 218.277344 56.585938 Z M 80.53125 189.074219 C 74.152344 175.089844 73.253906 163.003906 77.957031 153.269531 C 85.117188 138.609375 103.019531 132.902344 110.40625 131.113281 C 112.980469 130.441406 116 130.105469 119.359375 130.105469 C 126.742188 130.105469 135.25 131.894531 141.960938 136.371094 C 148.898438 140.957031 153.039062 147.785156 154.382812 156.625 C 155.949219 166.695312 153.9375 175.757812 151.808594 185.269531 C 148.566406 199.816406 145.09375 215.933594 154.382812 237.304688 C 133.347656 219.289062 119.917969 192.542969 119.917969 162.667969 C 119.917969 160.542969 118.128906 158.75 116 158.75 C 113.875 158.75 112.085938 160.542969 112.085938 162.667969 C 112.085938 194.445312 126.183594 223.09375 148.453125 242.5625 C 128.199219 236.746094 95.746094 222.421875 80.53125 189.074219 Z M 218.277344 260.914062 C 210.78125 260.914062 203.394531 260.019531 196.457031 258.453125 C 196.570312 256.214844 197.464844 251.292969 201.71875 246.367188 C 209.328125 237.417969 224.542969 232.046875 245.46875 230.816406 C 285.640625 228.464844 296.832031 208.546875 305.113281 194 C 308.695312 187.621094 311.265625 183.367188 314.734375 181.464844 C 306.007812 226.675781 266.058594 260.914062 218.277344 260.914062 Z M 218.277344 260.914062 " fill-opacity="1" fill-rule="nonzero"/><g fill="#000000" fill-opacity="1"><g transform="translate(81.300586, 319.915835)"><g><path d="M 20.046875 0 L 3.59375 0 L 3.59375 -28.5625 L 20.046875 -28.5625 L 20.046875 -23.59375 L 9.65625 -23.59375 L 9.65625 -17.328125 L 19.3125 -17.328125 L 19.3125 -12.359375 L 9.65625 -12.359375 L 9.65625 -5 L 20.046875 -5 Z M 20.046875 0 "/></g></g></g><g fill="#000000" fill-opacity="1"><g transform="translate(111.984977, 319.915835)"><g><path d="M 15.71875 -23.921875 C 13.445312 -23.921875 11.6875 -23.066406 10.4375 -21.359375 C 9.1875 -19.648438 8.5625 -17.265625 8.5625 -14.203125 C 8.5625 -7.835938 10.945312 -4.65625 15.71875 -4.65625 C 17.726562 -4.65625 20.160156 -5.15625 23.015625 -6.15625 L 23.015625 -1.078125 C 20.671875 -0.0976562 18.050781 0.390625 15.15625 0.390625 C 11 0.390625 7.820312 -0.867188 5.625 -3.390625 C 3.425781 -5.910156 2.328125 -9.523438 2.328125 -14.234375 C 2.328125 -17.203125 2.863281 -19.800781 3.9375 -22.03125 C 5.019531 -24.269531 6.570312 -25.984375 8.59375 -27.171875 C 10.625 -28.367188 13 -28.96875 15.71875 -28.96875 C 18.5 -28.96875 21.285156 -28.296875 24.078125 -26.953125 L 22.125 -22.03125 C 21.0625 -22.539062 19.988281 -22.984375 18.90625 -23.359375 C 17.820312 -23.734375 16.757812 -23.921875 15.71875 -23.921875 Z M 15.71875 -23.921875 "/></g></g></g><g fill="#000000" fill-opacity="1"><g transform="translate(145.755363, 319.915835)"><g><path d="M 29.515625 -14.3125 C 29.515625 -9.59375 28.34375 -5.960938 26 -3.421875 C 23.65625 -0.878906 20.296875 0.390625 15.921875 0.390625 C 11.546875 0.390625 8.1875 -0.878906 5.84375 -3.421875 C 3.5 -5.960938 2.328125 -9.609375 2.328125 -14.359375 C 2.328125 -19.109375 3.5 -22.734375 5.84375 -25.234375 C 8.195312 -27.742188 11.566406 -29 15.953125 -29 C 20.347656 -29 23.707031 -27.734375 26.03125 -25.203125 C 28.351562 -22.679688 29.515625 -19.050781 29.515625 -14.3125 Z M 8.671875 -14.3125 C 8.671875 -11.125 9.273438 -8.722656 10.484375 -7.109375 C 11.703125 -5.492188 13.515625 -4.6875 15.921875 -4.6875 C 20.753906 -4.6875 23.171875 -7.894531 23.171875 -14.3125 C 23.171875 -20.75 20.765625 -23.96875 15.953125 -23.96875 C 13.546875 -23.96875 11.726562 -23.15625 10.5 -21.53125 C 9.28125 -19.914062 8.671875 -17.507812 8.671875 -14.3125 Z M 8.671875 -14.3125 "/></g></g></g><g fill="#000000" fill-opacity="1"><g transform="translate(185.873518, 319.915835)"><g><path d="M 31.40625 0 L 24.515625 0 L 20.640625 -15 C 20.503906 -15.53125 20.257812 -16.632812 19.90625 -18.3125 C 19.5625 -19.988281 19.363281 -21.113281 19.3125 -21.6875 C 19.238281 -20.976562 19.046875 -19.84375 18.734375 -18.28125 C 18.421875 -16.726562 18.179688 -15.625 18.015625 -14.96875 L 14.15625 0 L 7.28125 0 L 0 -28.5625 L 5.953125 -28.5625 L 9.609375 -12.96875 C 10.242188 -10.09375 10.707031 -7.597656 11 -5.484375 C 11.070312 -6.234375 11.25 -7.382812 11.53125 -8.9375 C 11.8125 -10.488281 12.078125 -11.695312 12.328125 -12.5625 L 16.484375 -28.5625 L 22.203125 -28.5625 L 26.375 -12.5625 C 26.550781 -11.84375 26.773438 -10.75 27.046875 -9.28125 C 27.328125 -7.8125 27.535156 -6.546875 27.671875 -5.484375 C 27.804688 -6.503906 28.015625 -7.769531 28.296875 -9.28125 C 28.585938 -10.800781 28.847656 -12.03125 29.078125 -12.96875 L 32.71875 -28.5625 L 38.671875 -28.5625 Z M 31.40625 0 "/></g></g></g><g fill="#000000" fill-opacity="1"><g transform="translate(232.827734, 319.915835)"><g><path d="M 21.078125 0 L 19 -6.796875 L 8.59375 -6.796875 L 6.53125 0 L 0 0 L 10.078125 -28.671875 L 17.484375 -28.671875 L 27.59375 0 Z M 17.5625 -11.875 C 15.644531 -18.03125 14.566406 -21.507812 14.328125 -22.3125 C 14.085938 -23.125 13.914062 -23.765625 13.8125 -24.234375 C 13.382812 -22.566406 12.15625 -18.445312 10.125 -11.875 Z M 17.5625 -11.875 "/></g></g></g><g fill="#000000" fill-opacity="1"><g transform="translate(268.707543, 319.915835)"><g><path d="M 12.484375 -16.796875 L 18.4375 -28.5625 L 24.96875 -28.5625 L 15.484375 -11.109375 L 15.484375 0 L 9.46875 0 L 9.46875 -10.921875 L 0 -28.5625 L 6.5625 -28.5625 Z M 12.484375 -16.796875 "/></g></g></g></svg>