<svg xmlns="http://www.w3.org/2000/svg" xmlns:xlink="http://www.w3.org/1999/xlink" width="500" zoomAndPan="magnify" viewBox="0 0 375 374.999991" height="500" preserveAspectRatio="xMidYMid meet" version="1.0"><path fill="#00b5ee" d="M 233.433594 74.601562 C 179.292969 82.664062 159.417969 107.433594 144.15625 157.832031 C 151.644531 169.351562 156.828125 177.847656 156.828125 198.582031 C 156.828125 219.320312 149.484375 248.695312 144.875 264.105469 C 143.867188 267.414062 160.285156 295.640625 156.394531 295.640625 C 178.570312 315.078125 206.796875 317.527344 238.90625 317.527344 C 308.027344 317.527344 360.730469 260.214844 360.730469 192.96875 C 360.585938 125.71875 301.691406 64.375 233.433594 74.601562 Z M 233.433594 74.601562 " fill-opacity="1" fill-rule="nonzero"/><path fill="#8bc248" d="M 60.058594 192.96875 C 61.066406 179.289062 76.621094 158.550781 110.890625 158.550781 C 135.226562 158.550781 145.882812 179.71875 145.882812 201.464844 C 145.882812 223.351562 153.226562 269 148.621094 285.273438 C 143.867188 301.398438 103.117188 277.496094 82.234375 252.152344 C 61.5 226.808594 58.90625 209.960938 60.058594 192.96875 Z M 60.058594 192.96875 " fill-opacity="1" fill-rule="nonzero"/><path fill="#000000" d="M 131.050781 136.519531 C 132.921875 137.238281 134.796875 137.527344 136.667969 137.527344 C 139.257812 137.527344 141.996094 136.953125 144.585938 135.65625 C 149.914062 132.917969 154.089844 127.734375 155.964844 121.257812 C 159.417969 109.160156 154.378906 96.917969 144.441406 93.320312 C 140.125 91.734375 135.226562 92.023438 130.90625 94.183594 C 125.578125 96.917969 121.402344 102.105469 119.53125 108.582031 C 115.929688 120.535156 121.117188 132.777344 131.050781 136.519531 Z M 129.179688 111.320312 C 130.332031 107.574219 132.636719 104.40625 135.371094 103.113281 C 136.234375 102.679688 137.386719 102.246094 138.683594 102.246094 C 139.402344 102.246094 140.125 102.390625 140.84375 102.679688 C 145.738281 104.40625 148.1875 111.609375 146.171875 118.375 C 145.019531 122.121094 142.714844 125.289062 139.980469 126.582031 C 138.683594 127.304688 136.667969 127.878906 134.507812 127.015625 C 129.609375 125.289062 127.164062 118.089844 129.179688 111.320312 Z M 129.179688 111.320312 " fill-opacity="1" fill-rule="nonzero"/><path fill="#000000" d="M 100.089844 133.207031 C 100.234375 133.207031 100.523438 133.207031 100.667969 133.207031 C 104.554688 133.0625 108.300781 131.191406 111.035156 128.167969 C 114.636719 124.28125 116.363281 118.519531 116.074219 112.617188 C 115.355469 101.527344 107.578125 93.175781 98.363281 93.609375 C 94.476562 93.75 90.730469 95.625 87.996094 98.648438 C 84.394531 102.535156 82.667969 108.296875 82.957031 114.199219 C 83.675781 125 91.019531 133.207031 100.089844 133.207031 Z M 95.339844 105.414062 C 96.058594 104.695312 97.210938 103.6875 98.652344 103.6875 C 98.652344 103.6875 98.796875 103.6875 98.796875 103.6875 C 102.25 103.6875 105.5625 108.152344 105.851562 113.335938 C 105.996094 116.503906 105.132812 119.527344 103.402344 121.542969 C 102.683594 122.265625 101.53125 123.273438 100.089844 123.273438 C 96.636719 123.414062 93.179688 118.953125 92.890625 113.625 C 92.746094 110.3125 93.609375 107.289062 95.339844 105.414062 Z M 95.339844 105.414062 " fill-opacity="1" fill-rule="nonzero"/><path fill="#000000" d="M 61.929688 140.40625 C 64.089844 141.414062 66.25 141.992188 68.410156 141.992188 C 69.851562 141.992188 71.433594 141.703125 72.875 141.273438 C 81.082031 138.390625 84.828125 128.023438 81.371094 118.230469 C 79.5 112.902344 75.753906 108.582031 71.292969 106.28125 C 67.691406 104.550781 63.804688 104.265625 60.347656 105.558594 C 52.140625 108.441406 48.394531 118.808594 51.851562 128.601562 C 53.722656 133.929688 57.324219 138.246094 61.929688 140.40625 Z M 63.660156 114.917969 C 64.089844 114.777344 64.378906 114.777344 64.8125 114.777344 C 65.53125 114.777344 66.394531 115.0625 66.828125 115.351562 C 68.988281 116.359375 70.859375 118.664062 71.867188 121.542969 C 73.59375 126.441406 72.011719 130.902344 69.5625 131.769531 C 68.410156 132.199219 67.257812 131.769531 66.394531 131.480469 C 64.234375 130.472656 62.363281 128.167969 61.355469 125.289062 C 59.628906 120.246094 61.210938 115.929688 63.660156 114.917969 Z M 63.660156 114.917969 " fill-opacity="1" fill-rule="nonzero"/><path fill="#000000" d="M 39.753906 157.832031 C 40.476562 157.976562 41.195312 157.976562 41.914062 157.976562 C 44.9375 157.976562 47.675781 157.113281 49.980469 155.238281 C 56.316406 150.34375 57.179688 140.40625 51.707031 133.0625 C 48.828125 129.175781 44.652344 126.582031 40.1875 125.863281 C 36.441406 125.289062 32.84375 126.296875 29.964844 128.457031 C 23.628906 133.351562 22.761719 143.289062 28.234375 150.632812 C 31.117188 154.519531 35.292969 157.113281 39.753906 157.832031 Z M 36.011719 136.519531 C 36.585938 136.085938 37.453125 135.945312 38.027344 135.945312 C 38.316406 135.945312 38.460938 135.945312 38.746094 135.945312 C 40.476562 136.230469 42.347656 137.382812 43.5 139.113281 C 45.660156 141.992188 45.804688 145.878906 43.789062 147.320312 C 42.921875 148.039062 41.769531 148.039062 41.050781 147.894531 C 39.324219 147.609375 37.453125 146.457031 36.300781 144.726562 C 34.140625 141.847656 34.140625 137.960938 36.011719 136.519531 Z M 36.011719 136.519531 " fill-opacity="1" fill-rule="nonzero"/><path fill="#000000" d="M 29.097656 156.390625 C 25.210938 154.375 20.601562 154.085938 16.570312 155.382812 C 12.972656 156.679688 10.089844 159.128906 8.363281 162.441406 C 4.761719 169.640625 8.363281 178.710938 16.140625 182.601562 C 18.441406 183.75 21.035156 184.328125 23.628906 184.328125 C 25.355469 184.328125 27.082031 184.039062 28.667969 183.464844 C 32.265625 182.167969 35.148438 179.71875 36.875 176.40625 C 40.332031 169.351562 36.875 160.28125 29.097656 156.390625 Z M 27.804688 172.085938 C 27.226562 173.238281 26.21875 173.816406 25.5 174.105469 C 24.058594 174.535156 22.332031 174.390625 20.746094 173.671875 C 17.867188 172.230469 16.425781 169.207031 17.578125 166.902344 C 18.15625 165.75 19.164062 165.175781 19.882812 164.886719 C 20.460938 164.742188 21.035156 164.601562 21.609375 164.601562 C 22.621094 164.601562 23.628906 164.886719 24.636719 165.320312 C 27.371094 166.761719 28.8125 169.929688 27.804688 172.085938 Z M 27.804688 172.085938 " fill-opacity="1" fill-rule="nonzero"/><path fill="#000000" d="M 232.714844 52.566406 C 202.476562 52.566406 173.675781 62.214844 149.769531 80.648438 C 147.609375 82.375 147.179688 85.542969 148.90625 87.703125 C 150.636719 89.863281 153.804688 90.296875 155.964844 88.566406 C 178.140625 71.574219 204.777344 62.503906 232.714844 62.503906 C 234.15625 62.503906 235.738281 62.503906 237.179688 62.648438 C 228.394531 68.121094 224.507812 74.601562 221.195312 80.070312 C 219.035156 83.671875 217.164062 86.695312 214.285156 89.144531 C 208.378906 94.183594 198.011719 94.902344 190.234375 93.894531 C 182.027344 92.886719 169.929688 94.472656 163.59375 99.367188 C 161.433594 101.097656 161.003906 104.265625 162.730469 106.425781 C 163.738281 107.71875 165.179688 108.441406 166.761719 108.441406 C 167.769531 108.441406 168.921875 108.152344 169.789062 107.433594 C 173.242188 104.695312 182.316406 103.113281 189.082031 103.976562 C 193.835938 104.550781 210.394531 105.847656 220.90625 96.777344 C 224.9375 93.320312 227.53125 89.289062 229.835938 85.257812 C 234.441406 77.625 238.90625 70.425781 256.042969 65.238281 C 256.476562 65.097656 256.761719 64.953125 257.050781 64.808594 C 270.011719 67.398438 282.394531 71.863281 293.628906 78.054688 C 289.59375 78.777344 284.699219 79.929688 278.9375 81.65625 C 260.796875 87.414062 251.867188 101.671875 243.371094 115.496094 C 239.050781 122.550781 234.875 129.175781 229.691406 134.503906 C 220.761719 143.71875 207.371094 142.566406 194.554688 140.550781 C 181.59375 138.535156 169.5 141.847656 161.292969 149.335938 C 159.273438 151.207031 159.132812 154.375 161.003906 156.390625 C 162.011719 157.398438 163.308594 157.976562 164.746094 157.976562 C 165.898438 157.976562 167.195312 157.542969 168.203125 156.679688 C 174.105469 151.207031 183.324219 148.902344 193.257812 150.34375 C 203.914062 151.929688 223.644531 154.953125 237.035156 141.273438 C 243.082031 135.078125 247.691406 127.734375 252.15625 120.535156 C 260.074219 107.71875 267.5625 95.625 282.105469 91.015625 C 298.523438 85.832031 306.875 86.984375 307.164062 86.984375 C 307.453125 86.984375 307.882812 87.128906 308.171875 87.128906 C 317.242188 93.894531 325.453125 101.960938 332.507812 110.886719 C 326.746094 111.175781 318.105469 112.472656 306.441406 116.359375 C 285.5625 123.128906 275.339844 139.976562 265.546875 156.246094 C 260.507812 164.742188 255.609375 172.664062 249.417969 179 C 238.621094 190.089844 223.066406 188.792969 207.945312 186.488281 C 193.117188 184.183594 179.148438 187.929688 169.789062 196.710938 C 167.769531 198.582031 167.628906 201.75 169.5 203.769531 C 170.507812 204.777344 171.804688 205.351562 173.097656 205.351562 C 174.394531 205.351562 175.546875 204.921875 176.554688 203.910156 C 183.609375 197.289062 194.554688 194.40625 206.21875 196.28125 C 218.460938 198.152344 241.210938 201.609375 256.476562 185.769531 C 263.386719 178.566406 268.714844 169.785156 273.898438 161.144531 C 283.257812 145.734375 291.898438 131.335938 309.324219 125.574219 C 328.761719 119.238281 338.554688 120.679688 338.84375 120.824219 C 339.132812 120.824219 339.273438 120.824219 339.5625 120.824219 C 346.042969 130.902344 351.082031 142.136719 354.394531 153.945312 C 350.507812 154.230469 345.179688 154.953125 339.273438 156.679688 C 324.011719 161 312.921875 169.640625 307.164062 181.59375 C 306.15625 183.609375 305.292969 185.625 304.285156 187.640625 C 293.484375 210.96875 285.5625 227.816406 235.453125 228.96875 C 174.828125 230.40625 165.035156 260.792969 164.601562 262.089844 C 163.738281 264.679688 165.324219 267.414062 167.914062 268.28125 C 168.347656 268.425781 168.921875 268.566406 169.355469 268.566406 C 171.515625 268.566406 173.53125 267.273438 174.105469 265.113281 C 174.25 264.824219 182.890625 240.34375 235.59375 239.046875 C 291.898438 237.609375 301.835938 216.441406 313.210938 191.816406 C 314.074219 189.800781 315.082031 187.929688 316.089844 185.910156 C 324.875 167.625 347.914062 164.457031 356.554688 163.878906 C 358.140625 171.800781 359.003906 180.007812 359.003906 188.359375 C 359.003906 192.679688 358.714844 197 358.285156 201.320312 C 346.90625 203.480469 341.292969 213.273438 335.386719 223.785156 C 325.453125 241.351562 313.066406 263.238281 266.84375 265.976562 C 236.601562 267.703125 215.292969 275.625 203.339844 289.59375 C 197.148438 296.9375 194.988281 304.28125 194.410156 309.03125 C 185.484375 306.152344 176.84375 302.40625 168.921875 297.800781 C 147.035156 264.105469 151.644531 242.503906 156.683594 219.75 C 159.417969 207.078125 162.441406 193.976562 159.996094 179.144531 C 157.835938 165.175781 150.78125 153.800781 139.546875 146.3125 C 124.425781 136.230469 104.265625 134.9375 91.019531 138.105469 C 59.484375 145.734375 47.097656 162.582031 42.636719 172.089844 C 35.148438 187.496094 36.15625 205.929688 45.804688 226.808594 C 75.898438 292.617188 150.78125 304.566406 162.875 306.152344 C 183.179688 318.246094 206.9375 325.160156 232.285156 325.160156 C 307.59375 325.160156 368.796875 263.960938 368.796875 188.648438 C 369.226562 113.910156 308.027344 52.566406 232.714844 52.566406 Z M 55.453125 223.0625 C 47.242188 205.0625 46.089844 189.511719 52.140625 176.984375 C 61.355469 158.121094 84.394531 150.777344 93.898438 148.472656 C 97.210938 147.609375 101.097656 147.175781 105.417969 147.175781 C 114.921875 147.175781 125.867188 149.480469 134.507812 155.238281 C 143.433594 161.144531 148.761719 169.929688 150.492188 181.304688 C 152.507812 194.265625 149.914062 205.929688 147.179688 218.167969 C 143.003906 236.886719 138.539062 257.625 150.492188 285.128906 C 123.417969 261.945312 106.140625 227.527344 106.140625 189.078125 C 106.140625 186.34375 103.835938 184.039062 101.097656 184.039062 C 98.363281 184.039062 96.058594 186.34375 96.058594 189.078125 C 96.058594 229.976562 114.203125 266.839844 142.859375 291.894531 C 116.796875 284.40625 75.035156 265.976562 55.453125 223.0625 Z M 232.714844 315.511719 C 223.066406 315.511719 213.5625 314.359375 204.636719 312.34375 C 204.777344 309.464844 205.929688 303.128906 211.402344 296.792969 C 221.195312 285.273438 240.777344 278.359375 267.707031 276.777344 C 319.402344 273.75 333.804688 248.121094 344.460938 229.398438 C 349.066406 221.191406 352.378906 215.71875 356.84375 213.273438 C 345.609375 271.449219 294.203125 315.511719 232.714844 315.511719 Z M 232.714844 315.511719 " fill-opacity="1" fill-rule="nonzero"/></svg>