<svg xmlns="http://www.w3.org/2000/svg" xmlns:xlink="http://www.w3.org/1999/xlink" width="500" zoomAndPan="magnify" viewBox="0 0 375 374.999991" height="500" preserveAspectRatio="xMidYMid meet" version="1.0"><defs><g/></defs><path fill="#00b5ee" d="M 218.816406 73.675781 C 176.738281 79.945312 161.296875 99.191406 149.4375 138.355469 C 155.253906 147.308594 159.285156 153.910156 159.285156 170.023438 C 159.285156 186.136719 153.578125 208.964844 149.996094 220.9375 C 149.210938 223.511719 161.96875 245.445312 158.949219 245.445312 C 176.179688 260.550781 198.113281 262.453125 223.066406 262.453125 C 276.777344 262.453125 317.734375 217.917969 317.734375 165.660156 C 317.621094 113.402344 271.855469 65.730469 218.816406 73.675781 Z M 218.816406 73.675781 " fill-opacity="1" fill-rule="nonzero"/><path fill="#8bc248" d="M 84.085938 165.660156 C 84.871094 155.027344 96.957031 138.914062 123.585938 138.914062 C 142.5 138.914062 150.78125 155.363281 150.78125 172.261719 C 150.78125 189.269531 156.484375 224.742188 152.90625 237.386719 C 149.210938 249.917969 117.546875 231.34375 101.320312 211.648438 C 85.207031 191.957031 83.191406 178.863281 84.085938 165.660156 Z M 84.085938 165.660156 " fill-opacity="1" fill-rule="nonzero"/><path fill="#000000" d="M 139.253906 121.792969 C 140.707031 122.355469 142.164062 122.578125 143.617188 122.578125 C 145.632812 122.578125 147.757812 122.128906 149.773438 121.121094 C 153.914062 118.996094 157.15625 114.96875 158.613281 109.933594 C 161.296875 100.53125 157.382812 91.023438 149.660156 88.222656 C 146.304688 86.992188 142.5 87.21875 139.140625 88.894531 C 135 91.023438 131.757812 95.050781 130.300781 100.085938 C 127.503906 109.375 131.53125 118.886719 139.253906 121.792969 Z M 137.800781 102.210938 C 138.695312 99.300781 140.484375 96.839844 142.609375 95.832031 C 143.28125 95.496094 144.175781 95.160156 145.183594 95.160156 C 145.742188 95.160156 146.304688 95.273438 146.863281 95.496094 C 150.667969 96.839844 152.570312 102.433594 151.003906 107.695312 C 150.109375 110.605469 148.316406 113.066406 146.191406 114.074219 C 145.183594 114.632812 143.617188 115.082031 141.9375 114.410156 C 138.132812 113.066406 136.230469 107.472656 137.800781 102.210938 Z M 137.800781 102.210938 " fill-opacity="1" fill-rule="nonzero"/><path fill="#000000" d="M 115.195312 119.21875 C 115.308594 119.21875 115.53125 119.21875 115.644531 119.21875 C 118.664062 119.109375 121.574219 117.652344 123.699219 115.304688 C 126.496094 112.28125 127.839844 107.808594 127.617188 103.21875 C 127.054688 94.601562 121.015625 88.113281 113.851562 88.449219 C 110.832031 88.558594 107.921875 90.015625 105.796875 92.363281 C 102.996094 95.386719 101.65625 99.863281 101.878906 104.449219 C 102.4375 112.84375 108.144531 119.21875 115.195312 119.21875 Z M 111.503906 97.625 C 112.0625 97.0625 112.957031 96.28125 114.074219 96.28125 C 114.074219 96.28125 114.1875 96.28125 114.1875 96.28125 C 116.875 96.28125 119.449219 99.75 119.671875 103.777344 C 119.78125 106.238281 119.113281 108.589844 117.769531 110.15625 C 117.210938 110.714844 116.3125 111.5 115.195312 111.5 C 112.507812 111.609375 109.824219 108.140625 109.601562 104.003906 C 109.488281 101.429688 110.160156 99.078125 111.503906 97.625 Z M 111.503906 97.625 " fill-opacity="1" fill-rule="nonzero"/><path fill="#000000" d="M 85.542969 124.816406 C 87.21875 125.597656 88.898438 126.046875 90.578125 126.046875 C 91.695312 126.046875 92.925781 125.824219 94.046875 125.488281 C 100.425781 123.25 103.332031 115.191406 100.648438 107.582031 C 99.195312 103.441406 96.285156 100.085938 92.816406 98.296875 C 90.019531 96.953125 86.996094 96.730469 84.3125 97.734375 C 77.933594 99.972656 75.023438 108.03125 77.707031 115.640625 C 79.164062 119.78125 81.960938 123.136719 85.542969 124.816406 Z M 86.882812 105.007812 C 87.21875 104.898438 87.445312 104.898438 87.78125 104.898438 C 88.339844 104.898438 89.011719 105.121094 89.347656 105.34375 C 91.023438 106.128906 92.480469 107.917969 93.261719 110.15625 C 94.605469 113.960938 93.375 117.429688 91.472656 118.101562 C 90.578125 118.4375 89.683594 118.101562 89.011719 117.878906 C 87.332031 117.09375 85.878906 115.304688 85.09375 113.066406 C 83.75 109.148438 84.980469 105.792969 86.882812 105.007812 Z M 86.882812 105.007812 " fill-opacity="1" fill-rule="nonzero"/><path fill="#000000" d="M 68.308594 138.355469 C 68.867188 138.46875 69.429688 138.46875 69.988281 138.46875 C 72.335938 138.46875 74.464844 137.796875 76.253906 136.339844 C 81.175781 132.535156 81.847656 124.816406 77.597656 119.109375 C 75.359375 116.085938 72.113281 114.074219 68.644531 113.511719 C 65.734375 113.066406 62.9375 113.847656 60.699219 115.527344 C 55.777344 119.332031 55.105469 127.054688 59.355469 132.761719 C 61.59375 135.78125 64.839844 137.796875 68.308594 138.355469 Z M 65.398438 121.792969 C 65.847656 121.457031 66.519531 121.347656 66.964844 121.347656 C 67.191406 121.347656 67.300781 121.347656 67.527344 121.347656 C 68.867188 121.570312 70.324219 122.464844 71.21875 123.808594 C 72.898438 126.046875 73.007812 129.066406 71.441406 130.1875 C 70.769531 130.746094 69.875 130.746094 69.316406 130.632812 C 67.972656 130.410156 66.519531 129.515625 65.625 128.171875 C 63.945312 125.933594 63.945312 122.914062 65.398438 121.792969 Z M 65.398438 121.792969 " fill-opacity="1" fill-rule="nonzero"/><path fill="#000000" d="M 60.027344 137.238281 C 57.007812 135.667969 53.425781 135.445312 50.292969 136.453125 C 47.496094 137.460938 45.257812 139.363281 43.914062 141.9375 C 41.117188 147.53125 43.914062 154.582031 49.957031 157.601562 C 51.746094 158.496094 53.761719 158.945312 55.777344 158.945312 C 57.117188 158.945312 58.460938 158.722656 59.691406 158.273438 C 62.492188 157.265625 64.726562 155.363281 66.070312 152.789062 C 68.757812 147.308594 66.070312 140.257812 60.027344 137.238281 Z M 59.019531 149.433594 C 58.574219 150.328125 57.789062 150.777344 57.230469 151 C 56.113281 151.335938 54.769531 151.222656 53.539062 150.664062 C 51.300781 149.546875 50.179688 147.195312 51.078125 145.40625 C 51.523438 144.511719 52.308594 144.0625 52.867188 143.839844 C 53.3125 143.726562 53.761719 143.613281 54.210938 143.613281 C 54.992188 143.613281 55.777344 143.839844 56.558594 144.175781 C 58.6875 145.292969 59.804688 147.753906 59.019531 149.433594 Z M 59.019531 149.433594 " fill-opacity="1" fill-rule="nonzero"/><path fill="#000000" d="M 218.253906 56.554688 C 194.757812 56.554688 172.375 64.054688 153.800781 78.378906 C 152.121094 79.71875 151.785156 82.179688 153.128906 83.859375 C 154.472656 85.539062 156.933594 85.875 158.613281 84.53125 C 175.84375 71.328125 196.546875 64.277344 218.253906 64.277344 C 219.375 64.277344 220.605469 64.277344 221.722656 64.390625 C 214.898438 68.640625 211.875 73.675781 209.304688 77.929688 C 207.625 80.726562 206.167969 83.078125 203.933594 84.980469 C 199.34375 88.894531 191.289062 89.457031 185.246094 88.671875 C 178.867188 87.886719 169.464844 89.121094 164.542969 92.925781 C 162.863281 94.265625 162.527344 96.730469 163.871094 98.40625 C 164.65625 99.414062 165.773438 99.972656 167.003906 99.972656 C 167.789062 99.972656 168.683594 99.75 169.355469 99.191406 C 172.039062 97.0625 179.089844 95.832031 184.347656 96.503906 C 188.042969 96.953125 200.910156 97.960938 209.078125 90.910156 C 212.210938 88.222656 214.226562 85.089844 216.015625 81.957031 C 219.597656 76.027344 223.066406 70.433594 236.382812 66.402344 C 236.71875 66.292969 236.941406 66.179688 237.167969 66.066406 C 247.238281 68.082031 256.859375 71.550781 265.589844 76.363281 C 262.457031 76.921875 258.652344 77.816406 254.175781 79.160156 C 240.074219 83.636719 233.136719 94.714844 226.535156 105.457031 C 223.179688 110.941406 219.933594 116.085938 215.90625 120.226562 C 208.96875 127.390625 198.5625 126.492188 188.601562 124.925781 C 178.53125 123.359375 169.132812 125.933594 162.753906 131.753906 C 161.1875 133.207031 161.074219 135.667969 162.527344 137.238281 C 163.3125 138.019531 164.320312 138.46875 165.4375 138.46875 C 166.332031 138.46875 167.339844 138.132812 168.125 137.460938 C 172.710938 133.207031 179.875 131.417969 187.59375 132.535156 C 195.875 133.765625 211.207031 136.117188 221.613281 125.488281 C 226.3125 120.675781 229.894531 114.96875 233.363281 109.375 C 239.515625 99.414062 245.335938 90.015625 256.636719 86.433594 C 269.394531 82.40625 275.882812 83.300781 276.105469 83.300781 C 276.332031 83.300781 276.667969 83.414062 276.890625 83.414062 C 283.941406 88.671875 290.320312 94.9375 295.800781 101.875 C 291.324219 102.101562 284.613281 103.105469 275.546875 106.128906 C 259.324219 111.386719 251.378906 124.480469 243.769531 137.125 C 239.851562 143.726562 236.046875 149.882812 231.234375 154.804688 C 222.84375 163.421875 210.757812 162.414062 199.007812 160.625 C 187.484375 158.832031 176.628906 161.742188 169.355469 168.570312 C 167.789062 170.023438 167.675781 172.484375 169.132812 174.050781 C 169.914062 174.835938 170.921875 175.28125 171.929688 175.28125 C 172.933594 175.28125 173.832031 174.945312 174.613281 174.164062 C 180.097656 169.015625 188.601562 166.777344 197.664062 168.234375 C 207.175781 169.6875 224.855469 172.371094 236.71875 160.0625 C 242.089844 154.46875 246.230469 147.644531 250.257812 140.929688 C 257.53125 128.957031 264.246094 117.765625 277.785156 113.289062 C 292.890625 108.367188 300.5 109.484375 300.726562 109.597656 C 300.949219 109.597656 301.0625 109.597656 301.285156 109.597656 C 306.320312 117.429688 310.238281 126.160156 312.808594 135.335938 C 309.789062 135.558594 305.648438 136.117188 301.0625 137.460938 C 289.199219 140.816406 280.582031 147.53125 276.105469 156.820312 C 275.324219 158.386719 274.652344 159.953125 273.871094 161.519531 C 265.476562 179.648438 259.324219 192.738281 220.382812 193.632812 C 173.269531 194.753906 165.660156 218.363281 165.328125 219.371094 C 164.65625 221.386719 165.886719 223.511719 167.898438 224.183594 C 168.234375 224.292969 168.683594 224.40625 169.019531 224.40625 C 170.699219 224.40625 172.265625 223.398438 172.710938 221.722656 C 172.824219 221.496094 179.539062 202.472656 220.492188 201.46875 C 264.246094 200.347656 271.96875 183.898438 280.808594 164.765625 C 281.480469 163.195312 282.261719 161.742188 283.046875 160.175781 C 289.871094 145.964844 307.773438 143.503906 314.488281 143.054688 C 315.71875 149.210938 316.390625 155.589844 316.390625 162.078125 C 316.390625 165.433594 316.167969 168.792969 315.832031 172.148438 C 306.992188 173.828125 302.628906 181.4375 298.039062 189.605469 C 290.320312 203.257812 280.695312 220.265625 244.773438 222.390625 C 221.277344 223.734375 204.714844 229.890625 195.425781 240.742188 C 190.617188 246.449219 188.9375 252.15625 188.488281 255.851562 C 181.550781 253.613281 174.835938 250.703125 168.683594 247.121094 C 151.675781 220.9375 155.253906 204.152344 159.171875 186.472656 C 161.296875 176.625 163.648438 166.441406 161.746094 154.917969 C 160.066406 144.0625 154.582031 135.222656 145.855469 129.402344 C 134.105469 121.570312 118.441406 120.5625 108.144531 123.023438 C 83.640625 128.957031 74.015625 142.046875 70.546875 149.433594 C 64.726562 161.40625 65.511719 175.730469 73.007812 191.957031 C 96.394531 243.09375 154.585938 252.382812 163.984375 253.613281 C 179.761719 263.011719 198.226562 268.382812 217.917969 268.382812 C 276.441406 268.382812 324 220.824219 324 162.300781 C 324.335938 104.226562 276.777344 56.554688 218.253906 56.554688 Z M 80.507812 189.046875 C 74.128906 175.058594 73.234375 162.972656 77.933594 153.238281 C 85.09375 138.578125 102.996094 132.871094 110.382812 131.082031 C 112.957031 130.410156 115.976562 130.074219 119.335938 130.074219 C 126.722656 130.074219 135.226562 131.863281 141.9375 136.339844 C 148.878906 140.929688 153.015625 147.753906 154.359375 156.59375 C 155.925781 166.667969 153.914062 175.730469 151.785156 185.242188 C 148.542969 199.789062 145.074219 215.902344 154.359375 237.273438 C 133.324219 219.257812 119.894531 192.515625 119.894531 162.636719 C 119.894531 160.511719 118.105469 158.722656 115.976562 158.722656 C 113.851562 158.722656 112.0625 160.511719 112.0625 162.636719 C 112.0625 194.417969 126.160156 223.0625 148.429688 242.535156 C 128.175781 236.714844 95.722656 222.390625 80.507812 189.046875 Z M 218.253906 260.886719 C 210.757812 260.886719 203.371094 259.992188 196.433594 258.425781 C 196.546875 256.1875 197.441406 251.261719 201.695312 246.339844 C 209.304688 237.386719 224.519531 232.015625 245.445312 230.785156 C 285.617188 228.433594 296.808594 208.515625 305.089844 193.96875 C 308.671875 187.589844 311.242188 183.339844 314.710938 181.4375 C 305.984375 226.644531 266.035156 260.886719 218.253906 260.886719 Z M 218.253906 260.886719 " fill-opacity="1" fill-rule="nonzero"/><g fill="#000000" fill-opacity="1"><g transform="translate(81.312114, 319.915893)"><g><path d="M 20.046875 0 L 3.59375 0 L 3.59375 -28.5625 L 20.046875 -28.5625 L 20.046875 -23.59375 L 9.65625 -23.59375 L 9.65625 -17.328125 L 19.3125 -17.328125 L 19.3125 -12.359375 L 9.65625 -12.359375 L 9.65625 -5 L 20.046875 -5 Z M 20.046875 0 "/></g></g></g><g fill="#000000" fill-opacity="1"><g transform="translate(111.996505, 319.915893)"><g><path d="M 15.71875 -23.921875 C 13.445312 -23.921875 11.6875 -23.066406 10.4375 -21.359375 C 9.1875 -19.648438 8.5625 -17.265625 8.5625 -14.203125 C 8.5625 -7.835938 10.945312 -4.65625 15.71875 -4.65625 C 17.726562 -4.65625 20.160156 -5.15625 23.015625 -6.15625 L 23.015625 -1.078125 C 20.671875 -0.0976562 18.050781 0.390625 15.15625 0.390625 C 11 0.390625 7.820312 -0.867188 5.625 -3.390625 C 3.425781 -5.910156 2.328125 -9.523438 2.328125 -14.234375 C 2.328125 -17.203125 2.863281 -19.800781 3.9375 -22.03125 C 5.019531 -24.269531 6.570312 -25.984375 8.59375 -27.171875 C 10.625 -28.367188 13 -28.96875 15.71875 -28.96875 C 18.5 -28.96875 21.285156 -28.296875 24.078125 -26.953125 L 22.125 -22.03125 C 21.0625 -22.539062 19.988281 -22.984375 18.90625 -23.359375 C 17.820312 -23.734375 16.757812 -23.921875 15.71875 -23.921875 Z M 15.71875 -23.921875 "/></g></g></g><g fill="#000000" fill-opacity="1"><g transform="translate(145.766892, 319.915893)"><g><path d="M 29.515625 -14.3125 C 29.515625 -9.59375 28.34375 -5.960938 26 -3.421875 C 23.65625 -0.878906 20.296875 0.390625 15.921875 0.390625 C 11.546875 0.390625 8.1875 -0.878906 5.84375 -3.421875 C 3.5 -5.960938 2.328125 -9.609375 2.328125 -14.359375 C 2.328125 -19.109375 3.5 -22.734375 5.84375 -25.234375 C 8.195312 -27.742188 11.566406 -29 15.953125 -29 C 20.347656 -29 23.707031 -27.734375 26.03125 -25.203125 C 28.351562 -22.679688 29.515625 -19.050781 29.515625 -14.3125 Z M 8.671875 -14.3125 C 8.671875 -11.125 9.273438 -8.722656 10.484375 -7.109375 C 11.703125 -5.492188 13.515625 -4.6875 15.921875 -4.6875 C 20.753906 -4.6875 23.171875 -7.894531 23.171875 -14.3125 C 23.171875 -20.75 20.765625 -23.96875 15.953125 -23.96875 C 13.546875 -23.96875 11.726562 -23.15625 10.5 -21.53125 C 9.28125 -19.914062 8.671875 -17.507812 8.671875 -14.3125 Z M 8.671875 -14.3125 "/></g></g></g><g fill="#000000" fill-opacity="1"><g transform="translate(185.885047, 319.915893)"><g><path d="M 31.40625 0 L 24.515625 0 L 20.640625 -15 C 20.503906 -15.53125 20.257812 -16.632812 19.90625 -18.3125 C 19.5625 -19.988281 19.363281 -21.113281 19.3125 -21.6875 C 19.238281 -20.976562 19.046875 -19.84375 18.734375 -18.28125 C 18.421875 -16.726562 18.179688 -15.625 18.015625 -14.96875 L 14.15625 0 L 7.28125 0 L 0 -28.5625 L 5.953125 -28.5625 L 9.609375 -12.96875 C 10.242188 -10.09375 10.707031 -7.597656 11 -5.484375 C 11.070312 -6.234375 11.25 -7.382812 11.53125 -8.9375 C 11.8125 -10.488281 12.078125 -11.695312 12.328125 -12.5625 L 16.484375 -28.5625 L 22.203125 -28.5625 L 26.375 -12.5625 C 26.550781 -11.84375 26.773438 -10.75 27.046875 -9.28125 C 27.328125 -7.8125 27.535156 -6.546875 27.671875 -5.484375 C 27.804688 -6.503906 28.015625 -7.769531 28.296875 -9.28125 C 28.585938 -10.800781 28.847656 -12.03125 29.078125 -12.96875 L 32.71875 -28.5625 L 38.671875 -28.5625 Z M 31.40625 0 "/></g></g></g><g fill="#000000" fill-opacity="1"><g transform="translate(232.839262, 319.915893)"><g><path d="M 21.078125 0 L 19 -6.796875 L 8.59375 -6.796875 L 6.53125 0 L 0 0 L 10.078125 -28.671875 L 17.484375 -28.671875 L 27.59375 0 Z M 17.5625 -11.875 C 15.644531 -18.03125 14.566406 -21.507812 14.328125 -22.3125 C 14.085938 -23.125 13.914062 -23.765625 13.8125 -24.234375 C 13.382812 -22.566406 12.15625 -18.445312 10.125 -11.875 Z M 17.5625 -11.875 "/></g></g></g><g fill="#000000" fill-opacity="1"><g transform="translate(268.719071, 319.915893)"><g><path d="M 12.484375 -16.796875 L 18.4375 -28.5625 L 24.96875 -28.5625 L 15.484375 -11.109375 L 15.484375 0 L 9.46875 0 L 9.46875 -10.921875 L 0 -28.5625 L 6.5625 -28.5625 Z M 12.484375 -16.796875 "/></g></g></g></svg>