<svg xmlns="http://www.w3.org/2000/svg" xmlns:xlink="http://www.w3.org/1999/xlink" width="500" zoomAndPan="magnify" viewBox="0 0 375 374.999991" height="500" preserveAspectRatio="xMidYMid meet" version="1.0"><defs><clipPath id="808cbbd968"><path d="M 112.886719 108.765625 L 246.386719 108.765625 L 246.386719 266.265625 L 112.886719 266.265625 Z M 112.886719 108.765625 " clip-rule="nonzero"/></clipPath></defs><g clip-path="url(#808cbbd968)"><path fill="#c3642c" d="M 178.332031 265.632812 C 177.664062 265.359375 167.226562 261.035156 154.621094 252.484375 C 142.527344 244.277344 125.617188 230.261719 113.714844 210.101562 L 112.886719 208.679688 L 113.4375 207.140625 C 113.84375 206.035156 123.492188 180.089844 140.289062 153.65625 C 140.285156 151.925781 140.535156 150.5 140.796875 149.484375 C 136.046875 137.09375 140.179688 129.472656 140.671875 128.632812 L 143.734375 123.511719 L 151.683594 137.292969 C 160.039062 126.382812 168.714844 117.386719 177.488281 110.539062 L 179.636719 108.867188 L 181.78125 110.539062 C 190.570312 117.402344 199.253906 126.402344 207.617188 137.324219 L 215.582031 123.511719 L 218.632812 128.621094 C 219.132812 129.464844 223.269531 137.09375 218.519531 149.484375 C 218.785156 150.507812 219.039062 151.960938 219.027344 153.722656 C 235.832031 180.183594 245.429688 206.03125 245.832031 207.125 L 246.390625 208.679688 L 245.566406 210.09375 C 233.660156 230.261719 216.746094 244.277344 204.65625 252.484375 C 191.640625 261.316406 180.988281 265.617188 180.890625 265.65625 L 179.636719 266.164062 Z M 178.332031 265.632812 " fill-opacity="1" fill-rule="nonzero"/></g><path fill="#f2b10c" d="M 213.324219 230.121094 L 213.328125 230.128906 C 213.328125 230.128906 191.859375 246.742188 168.175781 244.742188 C 168.175781 244.742188 177.703125 242.917969 182.550781 241.097656 L 192.113281 235 C 192.113281 235 207.050781 231.730469 212.292969 229.011719 C 210.910156 227.429688 209.804688 225.804688 209 224.140625 C 206.480469 224.894531 196.257812 227.714844 184.863281 227.714844 C 183.121094 227.714844 181.351562 227.652344 179.578125 227.503906 C 174.042969 227.035156 169.058594 225.722656 165.003906 223.828125 C 154.546875 219.261719 152.238281 210.105469 152.238281 210.105469 L 149.050781 213.027344 C 149.050781 213.027344 150.328125 224.554688 165.007812 237.910156 C 165.007812 237.910156 147.691406 228.984375 143.089844 211.195312 L 133.121094 218.804688 C 133.121094 218.804688 138.851562 230.71875 153.332031 239.644531 C 153.332031 239.644531 134.9375 233.453125 128.484375 218.03125 L 125.742188 220.257812 C 135.984375 233.296875 147.863281 242.832031 156.941406 248.996094 C 168.539062 256.871094 177.980469 260.953125 179.640625 261.644531 C 181.296875 260.953125 190.742188 256.871094 202.335938 248.996094 C 207.472656 245.511719 213.507812 240.945312 219.628906 235.273438 C 217.160156 233.625 215.058594 231.902344 213.324219 230.121094 Z M 170.957031 250.519531 C 170.957031 250.519531 185.976562 251.613281 201.820312 243.425781 C 201.296875 243.890625 179.054688 263.339844 170.957031 250.519531 Z M 161.796875 210.40625 L 156.105469 213.699219 C 156.105469 213.699219 155.453125 207.597656 158.585938 208.636719 L 161.710938 209.667969 Z M 182.722656 147.054688 L 182.722656 161.902344 C 182.722656 161.902344 179.875 149.429688 181.339844 146.214844 C 181.449219 145.984375 181.925781 145.171875 182.589844 146.394531 C 182.671875 146.597656 182.722656 146.820312 182.722656 147.054688 Z M 179.660156 167.339844 L 178.273438 167.339844 C 177.328125 167.339844 176.554688 166.566406 176.554688 165.621094 L 176.554688 147.738281 C 176.554688 146.21875 177.117188 146.171875 177.40625 146.246094 C 177.460938 146.265625 177.519531 146.285156 177.574219 146.3125 C 177.835938 146.441406 178.128906 146.671875 178.40625 147.09375 C 178.6875 147.515625 178.953125 148.128906 179.152344 149.023438 C 179.90625 152.34375 183.59375 167.339844 179.660156 167.339844 Z M 241.785156 208.257812 C 240.105469 211.085938 238.316406 213.78125 236.464844 216.359375 L 230.917969 214.480469 C 232.496094 212.355469 234.003906 210.179688 235.386719 208 L 235.578125 207.699219 L 235.449219 207.367188 C 232.714844 200.515625 225.113281 182.535156 213.558594 163.464844 C 213.476562 163.15625 213.394531 162.90625 213.328125 162.71875 C 214.765625 160.558594 215.542969 158.492188 215.921875 156.648438 C 231.464844 181.292969 240.667969 205.277344 241.785156 208.257812 Z M 207.164062 143.710938 L 204.097656 149.023438 C 196.320312 138.070312 188.25 128.914062 180.097656 121.816406 L 179.640625 121.417969 L 179.183594 121.816406 C 171.042969 128.902344 162.988281 138.046875 155.207031 149 L 152.140625 143.675781 C 161.019531 131.496094 170.269531 121.574219 179.640625 114.179688 C 189.015625 121.582031 198.273438 131.511719 207.164062 143.710938 Z M 123.832031 207.371094 L 123.699219 207.703125 L 123.894531 208.003906 C 125.804688 211.015625 127.929688 214.003906 130.210938 216.90625 L 128.09375 216.554688 L 124.890625 219.152344 C 122.285156 215.753906 119.789062 212.125 117.492188 208.257812 C 118.609375 205.277344 127.824219 181.265625 143.386719 156.597656 C 143.765625 158.453125 144.542969 160.539062 145.992188 162.71875 C 145.933594 162.890625 145.859375 163.113281 145.78125 163.386719 C 134.203125 182.480469 126.578125 200.5 123.832031 207.371094 Z M 123.832031 207.371094 " fill-opacity="1" fill-rule="nonzero"/><path fill="#c3642c" d="M 177.472656 164.363281 L 179.339844 165.621094 L 177.835938 163.179688 L 179.925781 164.40625 L 178.066406 161.3125 C 178.066406 161.3125 179.839844 156.941406 178.964844 152.800781 C 178.09375 148.660156 176.140625 148.019531 176.140625 148.019531 L 176.140625 145.738281 L 181.824219 144.878906 L 182.980469 145.738281 C 182.980469 145.738281 182.074219 145.789062 181.449219 148.476562 C 180.824219 151.167969 183.164062 158.660156 183.164062 158.660156 L 183.160156 164.089844 C 183.160156 164.089844 183.34375 167.273438 180.660156 168.003906 C 177.96875 168.734375 176.140625 166.550781 176.140625 166.550781 C 176.875 166.261719 177.472656 164.363281 177.472656 164.363281 Z M 168.542969 239.003906 C 153.332031 227.445312 151.878906 213.699219 151.878906 213.699219 C 152.667969 216.238281 159.25 220.316406 159.25 220.316406 L 156.796875 216.359375 L 156.035156 214.976562 L 160.371094 213.699219 C 156.613281 211.421875 158.59375 208.054688 158.59375 208.054688 L 154.601562 208.054688 L 155.492188 213.984375 L 152.789062 209.058594 L 148.417969 212.414062 L 143.398438 210.605469 L 141.585938 211.574219 C 142.40625 216.726562 147.320312 223.898438 147.320312 223.898438 C 144.316406 220.984375 141.21875 215.707031 141.21875 215.707031 C 143.863281 223.71875 149.144531 228.90625 149.144531 228.90625 C 145.773438 226.992188 142.40625 222.875 142.40625 222.875 C 149.054688 234.230469 158.253906 237.648438 158.253906 237.648438 C 154.792969 234.460938 152.96875 231.003906 152.96875 231.003906 C 163.171875 240.640625 168.542969 239.003906 168.542969 239.003906 Z M 238.042969 206.335938 C 232.628906 192.761719 212.585938 146.40625 181.933594 119.710938 L 179.640625 117.714844 L 177.34375 119.710938 C 146.742188 146.371094 126.664062 192.753906 121.238281 206.335938 L 120.578125 207.992188 L 121.53125 209.5 C 123.449219 212.515625 125.480469 215.378906 127.589844 218.089844 L 128.328125 217.5625 L 124.828125 220.070312 L 133.117188 229.71875 C 133.117188 229.71875 143.136719 239.367188 145.992188 241.460938 C 148.847656 243.554688 153.789062 244.007812 153.789062 244.007812 C 149.691406 242.367188 147.324219 239.105469 147.324219 239.105469 C 151.878906 241.851562 159.984375 240.886719 159.984375 240.886719 C 141.496094 233.3125 134.027344 217.320312 134.027344 217.320312 L 131.746094 218.332031 L 128.65625 217.320312 L 131.742188 218.332031 L 132.121094 218.164062 C 129.445312 214.894531 126.871094 211.382812 124.484375 207.625 C 129.421875 195.25 149.390625 148.683594 179.640625 122.335938 C 209.929688 148.714844 229.863281 195.246094 234.796875 207.621094 C 228.980469 216.78125 222.046875 224.488281 215.242188 230.769531 L 216.015625 231.429688 L 213.328125 229.144531 L 208.726562 222.863281 L 207.5 223.816406 C 207.5 223.816406 208.648438 227.179688 209.621094 228.480469 C 209.621094 228.480469 195.9375 233.445312 187.617188 233.71875 C 179.292969 233.988281 174.714844 233.71875 174.714844 233.71875 C 174.714844 233.71875 182.5 235.972656 185.027344 236.242188 C 185.027344 236.242188 182.636719 239.113281 180.042969 240.132812 C 177.449219 241.15625 158.925781 244.84375 158.925781 244.84375 C 158.925781 244.84375 168.023438 247.714844 177.179688 246.964844 C 177.179688 246.964844 172.546875 248.535156 167.214844 248.464844 C 167.214844 248.464844 167.902344 251.765625 170.859375 254.21875 C 170.855469 254.21875 170.855469 254.214844 170.851562 254.214844 C 170.894531 254.25 170.9375 254.28125 170.980469 254.316406 C 171.136719 254.441406 171.296875 254.5625 171.464844 254.683594 C 171.542969 254.734375 171.617188 254.789062 171.691406 254.84375 C 171.777344 254.898438 171.863281 254.953125 171.949219 255.007812 C 172.039062 255.0625 172.125 255.117188 172.21875 255.175781 C 172.304688 255.222656 172.386719 255.273438 172.476562 255.320312 C 172.585938 255.382812 172.703125 255.441406 172.816406 255.503906 C 172.890625 255.539062 172.964844 255.578125 173.039062 255.613281 C 173.234375 255.703125 173.429688 255.792969 173.628906 255.875 C 173.683594 255.898438 173.738281 255.917969 173.792969 255.9375 C 173.957031 256 174.121094 256.058594 174.289062 256.121094 C 174.367188 256.148438 174.453125 256.171875 174.53125 256.199219 C 174.605469 256.222656 174.679688 256.25 174.753906 256.273438 C 174.746094 256.269531 174.734375 256.261719 174.722656 256.257812 C 176.664062 256.835938 179.082031 257.027344 182.097656 256.523438 C 182.097656 256.523438 180.457031 258.121094 177.933594 258.914062 C 177.933594 258.914062 183.394531 259.1875 192.617188 253.113281 C 201.839844 247.035156 209.285156 237.546875 209.285156 237.546875 C 209.285156 237.546875 201.5 242.597656 195.28125 244.511719 L 201.496094 240.484375 L 194.257812 242.601562 C 194.257812 242.601562 206.347656 237.003906 212.972656 232.292969 L 215.777344 234.75 L 207.578125 242.808594 L 216.117188 236.664062 L 211.445312 242.304688 L 217.414062 238.367188 L 220.484375 235.230469 L 217.921875 233.050781 C 224.808594 226.660156 231.835938 218.8125 237.753906 209.496094 L 238.707031 207.992188 Z M 238.042969 206.335938 " fill-opacity="1" fill-rule="nonzero"/><path fill="#617f84" d="M 188.714844 152.753906 C 191.011719 154.550781 192.542969 156.597656 192.542969 156.597656 C 189.464844 155.046875 186.011719 155.175781 186.011719 155.175781 L 184.097656 165.972656 C 183.921875 167.523438 182.601562 168.734375 181.003906 168.734375 L 178.273438 168.734375 C 176.554688 168.734375 175.160156 167.339844 175.160156 165.621094 L 175.160156 152.621094 C 171.757812 152.527344 167.542969 154.550781 167.542969 154.550781 C 169.726562 154.292969 172.734375 155.078125 172.734375 155.078125 C 167.453125 156.257812 165.082031 158.625 165.082031 158.625 C 167.269531 158.171875 169.820312 158.171875 169.820312 158.171875 C 166.8125 159.171875 164.445312 161.539062 164.445312 161.539062 C 166.359375 168.730469 166.152344 173.570312 166.152344 173.570312 C 168.335938 174.273438 176.160156 177.785156 178.171875 192.246094 L 181.148438 192.246094 C 181.703125 188.257812 182.695312 185.101562 183.898438 182.613281 C 185.09375 180.121094 186.496094 178.292969 187.855469 176.953125 L 187.007812 171.941406 L 189.433594 175.582031 C 191.03125 174.375 192.421875 173.8125 193.164062 173.570312 C 193.234375 169.789062 194.242188 166.105469 196.128906 162.84375 L 199.257812 157.410156 C 195.183594 153.738281 188.714844 152.753906 188.714844 152.753906 Z M 178.949219 182.863281 C 176.382812 174.445312 170.476562 171.460938 170.476562 171.460938 C 179.699219 172.621094 178.949219 182.863281 178.949219 182.863281 Z M 196.613281 206.125 L 195.890625 212.386719 C 192.253906 212.503906 188.964844 212.167969 187.613281 212.003906 L 188.4375 202.464844 L 192.6875 199.964844 Z M 171.707031 212.003906 C 171.066406 212.078125 169.988281 212.199219 168.648438 212.285156 L 167.222656 207.054688 L 166.554688 212.386719 C 165.570312 212.414062 164.515625 212.421875 163.429688 212.386719 L 162.707031 206.125 L 166.632812 199.964844 L 170.882812 202.464844 Z M 171.707031 212.003906 " fill-opacity="1" fill-rule="nonzero"/><path fill="#bcc7ce" d="M 176.136719 184.242188 L 166.445312 174.734375 L 165.71875 174.734375 L 163.351562 160.628906 L 167.207031 152.984375 L 175.648438 150.796875 L 175.648438 156.273438 L 175.832031 156.167969 L 175.160156 165.621094 L 173.894531 157.273438 C 172.558594 157.089844 171.273438 157.261719 171.273438 157.261719 C 172.320312 157.648438 173.367188 158.625 173.367188 158.625 C 170.179688 158.988281 166.445312 162.449219 166.445312 162.449219 C 167.105469 166.085938 167.285156 169.253906 167.304688 171.460938 C 167.308594 171.460938 174.105469 176.238281 176.136719 184.242188 Z M 175.101562 170.546875 C 177.195312 171.820312 177.648438 174.097656 177.648438 174.097656 C 174.734375 171.003906 170.476562 171.460938 170.476562 171.460938 C 179.878906 175.375 178.949219 182.859375 178.949219 182.859375 C 182.523438 172.691406 175.101562 170.546875 175.101562 170.546875 Z M 198.003906 160.605469 L 200.191406 156.777344 C 200.191406 156.777344 195.207031 151.933594 187.828125 151.589844 L 184.757812 154.546875 L 183.832031 166.914062 L 187.691406 156.777344 C 187.691406 156.777344 192.40625 156.914062 194.457031 158.898438 C 194.457031 158.898438 194.113281 156.847656 193.292969 155.550781 C 193.292969 155.554688 197.050781 157.53125 198.003906 160.605469 Z M 193.976562 173.714844 L 193.976562 170.84375 L 189.8125 173.644531 L 185.648438 168.59375 L 186.671875 176.703125 C 186.671875 176.703125 182.234375 180.714844 181.316406 189.476562 L 181.296875 189.480469 L 178.175781 192.242188 L 181.855469 193.238281 L 182.316406 190.558594 Z M 193.976562 209.054688 L 191.734375 210.257812 L 192.878906 206.183594 L 189.496094 210.257812 L 190.222656 203.316406 L 193.980469 200.496094 L 192.878906 199.3125 L 187.566406 201.585938 L 185.851562 213.242188 C 185.851562 213.242188 196.050781 213.242188 196.617188 213.242188 C 197.183594 213.242188 196.617188 210.257812 196.617188 210.257812 C 194.449219 210.011719 193.976562 209.054688 193.976562 209.054688 Z M 170.070312 202.796875 L 170.753906 210.785156 L 169.5 210.855469 L 166.859375 203.277344 L 165.699219 211.105469 L 164.445312 211.105469 L 163.351562 204.640625 L 162.078125 205.25 L 162.707031 213.246094 L 172.183594 213.246094 L 172.183594 201.570312 L 166.632812 199.964844 Z M 194.589844 175.199219 C 195.136719 184.78125 193.863281 191.464844 193.050781 194.59375 C 192.660156 196.105469 192.921875 197.730469 193.765625 199.0625 L 197.710938 205.25 C 198.777344 205.175781 199.628906 204.785156 200.300781 204.058594 C 202.257812 201.921875 201.921875 197.6875 201.917969 197.648438 L 201.886719 197.257812 L 202.203125 197.023438 C 208.121094 192.691406 206.582031 188.351562 206.515625 188.171875 L 206.347656 187.71875 L 206.710938 187.398438 C 211.542969 183.144531 211.195312 178.25 210.699219 176.027344 C 210.417969 176.386719 210.132812 176.742188 209.847656 177.097656 C 209.308594 177.777344 208.773438 178.457031 208.222656 179.125 C 207.132812 180.472656 206.027344 181.804688 204.914062 183.132812 C 203.804688 184.464844 202.675781 185.78125 201.550781 187.09375 C 200.429688 188.417969 199.269531 189.707031 197.886719 190.820312 C 198.671875 189.226562 199.683594 187.816406 200.730469 186.4375 C 201.777344 185.058594 202.824219 183.675781 203.882812 182.304688 C 204.9375 180.933594 206.003906 179.566406 207.085938 178.210938 C 207.621094 177.535156 208.167969 176.859375 208.714844 176.191406 C 209.261719 175.515625 209.804688 174.84375 210.363281 174.183594 L 210.390625 174.207031 L 210.398438 174.1875 C 213.117188 169.804688 212.734375 165.964844 212.285156 164.101562 C 212.015625 164.4375 211.75 164.773438 211.480469 165.113281 C 210.941406 165.789062 210.402344 166.46875 209.855469 167.136719 C 208.765625 168.484375 207.660156 169.816406 206.546875 171.144531 C 205.433594 172.472656 204.3125 173.789062 203.183594 175.109375 C 202.0625 176.429688 200.902344 177.71875 199.515625 178.828125 C 200.304688 177.238281 201.320312 175.832031 202.367188 174.449219 C 203.410156 173.066406 204.453125 171.6875 205.515625 170.316406 C 206.574219 168.941406 207.636719 167.578125 208.71875 166.226562 C 209.253906 165.542969 209.800781 164.875 210.347656 164.199219 C 210.886719 163.535156 211.429688 162.871094 211.980469 162.214844 C 215.34375 157.347656 214.992188 152.9375 214.539062 150.863281 C 214.1875 151.328125 213.835938 151.792969 213.480469 152.257812 C 212.847656 153.082031 212.21875 153.910156 211.570312 154.726562 C 210.292969 156.371094 209 158 207.699219 159.625 L 205.742188 162.0625 L 203.769531 164.488281 C 202.464844 166.105469 201.140625 167.71875 199.515625 169.09375 C 200.445312 167.179688 201.675781 165.5 202.917969 163.828125 L 204.769531 161.3125 L 206.640625 158.804688 C 207.890625 157.140625 209.140625 155.480469 210.414062 153.832031 C 211.046875 153.003906 211.691406 152.1875 212.328125 151.363281 C 212.949219 150.566406 213.574219 149.773438 214.210938 148.988281 C 217.828125 140.3125 216.449219 134.335938 215.5625 131.9375 L 197.335938 163.539062 C 195.308594 167.058594 194.359375 171.089844 194.589844 175.199219 Z M 166.269531 194.59375 C 165.457031 191.464844 164.183594 184.78125 164.726562 175.199219 C 164.960938 171.089844 164.011719 167.058594 161.984375 163.539062 L 143.761719 131.945312 C 142.878906 134.355469 141.507812 140.351562 145.109375 148.988281 C 145.742188 149.773438 146.367188 150.566406 146.988281 151.363281 C 147.628906 152.1875 148.273438 153.003906 148.902344 153.832031 C 150.175781 155.480469 151.429688 157.140625 152.679688 158.804688 L 154.546875 161.3125 L 156.402344 163.828125 C 157.644531 165.5 158.875 167.179688 159.800781 169.09375 C 158.179688 167.71875 156.855469 166.105469 155.550781 164.488281 L 153.578125 162.0625 L 151.621094 159.625 C 150.320312 158 149.027344 156.371094 147.746094 154.726562 C 147.101562 153.910156 146.46875 153.082031 145.839844 152.257812 C 145.480469 151.789062 145.125 151.320312 144.773438 150.855469 C 144.304688 152.914062 143.941406 157.300781 147.339844 162.214844 C 147.890625 162.867188 148.433594 163.535156 148.96875 164.199219 C 149.519531 164.875 150.066406 165.542969 150.601562 166.226562 C 151.683594 167.578125 152.746094 168.941406 153.804688 170.316406 C 154.867188 171.6875 155.910156 173.066406 156.953125 174.449219 C 158 175.832031 159.011719 177.238281 159.800781 178.828125 C 158.417969 177.71875 157.257812 176.429688 156.132812 175.109375 C 155.007812 173.789062 153.882812 172.472656 152.773438 171.144531 C 151.660156 169.816406 150.554688 168.484375 149.464844 167.136719 C 148.914062 166.46875 148.375 165.789062 147.839844 165.113281 C 147.570312 164.773438 147.304688 164.4375 147.035156 164.101562 C 146.585938 165.960938 146.199219 169.800781 148.917969 174.1875 L 148.925781 174.207031 L 148.957031 174.183594 C 149.515625 174.84375 150.058594 175.515625 150.601562 176.191406 C 151.152344 176.859375 151.699219 177.535156 152.234375 178.210938 C 153.3125 179.566406 154.378906 180.933594 155.433594 182.304688 C 156.496094 183.675781 157.542969 185.058594 158.585938 186.4375 C 159.636719 187.816406 160.648438 189.226562 161.433594 190.820312 C 160.050781 189.707031 158.890625 188.417969 157.765625 187.09375 C 156.640625 185.78125 155.515625 184.464844 154.40625 183.132812 C 153.292969 181.804688 152.1875 180.472656 151.09375 179.125 C 150.546875 178.457031 150.011719 177.777344 149.472656 177.097656 C 149.1875 176.742188 148.902344 176.382812 148.621094 176.027344 C 148.125 178.25 147.777344 183.144531 152.609375 187.398438 L 152.976562 187.71875 L 152.804688 188.171875 C 152.734375 188.351562 151.199219 192.691406 157.117188 197.023438 L 157.433594 197.257812 L 157.402344 197.648438 C 157.398438 197.6875 157.058594 201.921875 159.019531 204.058594 C 159.691406 204.785156 160.539062 205.175781 161.609375 205.25 L 165.550781 199.0625 C 166.398438 197.730469 166.660156 196.105469 166.269531 194.59375 Z M 222.9375 230.855469 C 218.964844 229.667969 217.210938 227.902344 217.101562 227.792969 C 218.304688 229.769531 220 231.8125 220 231.8125 C 211.667969 226.625 211.441406 220.160156 211.441406 220.160156 C 213.167969 224.257812 217.097656 225.898438 217.097656 225.898438 C 209.738281 217.886719 210.550781 210.261719 210.550781 210.261719 C 209.746094 211.714844 208.699219 214.199219 208.726562 217.28125 C 208.746094 219.140625 209.144531 220.996094 209.917969 222.800781 L 210.011719 223.011719 C 211.777344 227 215.371094 230.792969 220.675781 234.292969 C 222.28125 232.78125 223.882812 231.191406 225.472656 229.53125 C 223.238281 228.238281 221.328125 226.820312 219.695312 225.34375 C 220.152344 228.484375 222.9375 230.855469 222.9375 230.855469 Z M 222.9375 213.242188 L 211.8125 209.460938 C 212.539062 212.714844 215.546875 222.3125 226.460938 228.488281 C 228.933594 225.835938 229.835938 223.515625 229.835938 221.535156 C 229.835938 216.082031 222.9375 213.242188 222.9375 213.242188 Z M 210.675781 207.601562 L 229.53125 214.003906 C 231.117188 211.894531 232.625 209.726562 234.015625 207.554688 C 231.324219 200.84375 224.402344 184.566406 213.996094 166.917969 C 213.988281 169.039062 213.488281 171.730469 211.761719 174.636719 C 212.257812 176.195312 213.839844 182.695312 207.960938 188.144531 C 208.296875 189.550781 208.734375 193.800781 203.332031 197.917969 C 203.378906 199.132812 203.335938 202.8125 201.328125 204.996094 C 200.449219 205.957031 199.320312 206.503906 197.960938 206.628906 L 197.523438 210.40625 L 207.367188 216.101562 C 207.710938 211.277344 210.253906 208.121094 210.367188 207.976562 Z M 175.160156 148.082031 L 175.160156 147.054688 C 175.160156 145.335938 176.554688 143.941406 178.273438 143.941406 L 181.003906 143.941406 C 182.722656 143.941406 184.117188 145.335938 184.117188 147.054688 L 184.117188 148.078125 C 193.207031 149.125 199.023438 153.082031 200.90625 154.550781 L 203.328125 150.351562 C 195.644531 139.460938 187.683594 130.355469 179.640625 123.269531 C 171.613281 130.34375 163.65625 139.445312 155.976562 150.332031 L 158.410156 154.550781 C 160.292969 153.082031 166.097656 149.136719 175.160156 148.082031 Z M 157.992188 204.996094 C 155.984375 202.8125 155.941406 199.132812 155.988281 197.917969 C 150.585938 193.800781 151.023438 189.550781 151.359375 188.144531 C 145.480469 182.695312 147.0625 176.195312 147.558594 174.636719 C 145.816406 171.710938 145.324219 169.003906 145.324219 166.875 C 134.902344 184.539062 127.960938 200.832031 125.261719 207.558594 C 127.371094 210.84375 129.726562 214.105469 132.273438 217.25 L 132.75 217.328125 L 142.8125 209.652344 L 148.695312 211.457031 L 154.75 205.894531 L 161.535156 208.140625 L 161.359375 206.628906 C 160 206.503906 158.871094 205.957031 157.992188 204.996094 Z M 157.992188 204.996094 " fill-opacity="1" fill-rule="nonzero"/><path fill="#617f84" d="M 162.707031 194.308594 C 154.765625 196.128906 155.625 187.777344 155.625 187.777344 C 152.707031 185.710938 152.617188 182.863281 152.617188 182.863281 L 159.550781 189.085938 L 154.546875 182.019531 L 148.34375 175.1875 C 148.34375 175.1875 148.074219 174.679688 147.710938 173.867188 C 148.070312 174.445312 148.34375 174.734375 148.34375 174.734375 L 156.351562 183.496094 C 151.164062 177.050781 149.15625 169.613281 149.15625 169.613281 L 158.320312 177.503906 L 148.34375 164.558594 L 153.265625 169.613281 C 147.679688 162.089844 146.605469 156.167969 146.605469 156.167969 L 157.976562 167.339844 L 144.511719 149.523438 C 142.234375 155.804688 146.605469 162.769531 146.605469 162.769531 L 148.34375 164.558594 L 146.515625 163.179688 C 145.925781 165.820312 145.945312 167.996094 146.230469 169.726562 C 145.769531 167.945312 145.542969 166.066406 146.035156 164.636719 L 143.855469 168.15625 C 143.855469 168.15625 143.453125 172.476562 145.230469 175.195312 C 145.230469 175.195312 142.585938 183.042969 149.148438 189.085938 C 149.148438 189.085938 148.597656 196.042969 153.789062 199.320312 C 153.789062 199.320312 153.609375 201.683594 154.882812 203.144531 L 153.292969 202.503906 L 148.34375 209.058594 L 142.140625 206.605469 L 130.65625 216.101562 L 132.476562 218.429688 L 142.769531 210.261719 L 148.414062 212.410156 L 154.878906 207.144531 L 162.375 209.058594 L 161.792969 206.191406 L 162.703125 204.234375 C 158.964844 202.28125 161.792969 198.40625 161.792969 198.40625 L 159.125 198.40625 L 161.792969 196.953125 Z M 152.15625 187.921875 C 151.292969 191.050781 152.804688 193.773438 154.3125 195.574219 C 152.742188 193.730469 151.160156 190.949219 152.15625 187.921875 Z M 214.808594 149.519531 C 214.808594 149.519531 219.59375 140.386719 215.5625 131.933594 C 215.5625 131.933594 213.949219 148.882812 204.773438 161.308594 Z M 212.714844 156.167969 C 212.714844 156.167969 211.640625 162.089844 206.054688 169.613281 L 210.976562 164.558594 L 201 177.503906 L 210.164062 169.613281 C 210.164062 169.613281 208.15625 177.050781 202.964844 183.496094 L 210.976562 174.734375 C 210.976562 174.734375 214.546875 170.972656 212.804688 163.175781 L 210.976562 164.554688 L 212.714844 162.765625 C 212.714844 162.765625 217.085938 155.800781 214.808594 149.519531 L 201.34375 167.335938 Z M 196.90625 169.175781 C 196.863281 169.472656 196.863281 169.613281 196.863281 169.613281 C 207.882812 155.839844 208.40625 147.703125 208.40625 147.703125 C 208.40625 147.703125 205.15625 152.4375 201 159.570312 C 197.757812 165.132812 197.058594 168.125 196.90625 169.175781 Z M 203.328125 170.914062 C 206.785156 167.636719 208.726562 162.765625 208.726562 162.765625 C 203.285156 166.546875 203.328125 170.914062 203.328125 170.914062 Z M 143.757812 131.9375 C 139.726562 140.386719 144.511719 149.523438 144.511719 149.523438 L 154.546875 161.3125 C 145.371094 148.886719 143.757812 131.9375 143.757812 131.9375 Z M 162.414062 169.175781 C 162.265625 168.125 161.5625 165.132812 158.320312 159.566406 C 154.164062 152.433594 150.914062 147.699219 150.914062 147.699219 C 150.914062 147.699219 151.4375 155.835938 162.457031 169.609375 C 162.457031 169.613281 162.457031 169.472656 162.414062 169.175781 Z M 155.992188 170.914062 C 155.992188 170.914062 156.039062 166.546875 150.59375 162.765625 C 150.59375 162.765625 152.535156 167.636719 155.992188 170.914062 Z M 227.558594 214.132812 L 210.984375 208.515625 L 211.816406 211.105469 C 211.816406 211.105469 220.617188 212.898438 223.691406 217.816406 C 223.691406 217.816406 220.753906 215.835938 218.90625 215.425781 C 218.90625 215.425781 227.242188 221.777344 223.691406 227.441406 L 226.488281 229.417969 L 231.609375 222.273438 Z M 221.777344 226.304688 L 215.773438 221.34375 L 211.8125 212.195312 L 210.550781 210.257812 C 209.75 214.695312 211.605469 219.523438 211.605469 219.523438 C 210.773438 218.113281 210.070312 215.609375 210.070312 215.609375 C 210.070312 215.609375 209.425781 221.496094 213.761719 227.304688 C 218.097656 233.109375 222.789062 233.449219 222.789062 233.449219 C 221.164062 232.3125 220.476562 230.855469 220.476562 230.855469 C 221.457031 231.765625 223.871094 232.402344 223.871094 232.402344 L 225.101562 231.128906 C 222.550781 229.71875 221.777344 226.304688 221.777344 226.304688 Z M 205.976562 198.980469 C 211.167969 195.703125 210.617188 188.75 210.617188 188.75 C 217.175781 182.707031 214.535156 174.859375 214.535156 174.859375 C 216.308594 172.140625 215.910156 167.816406 215.910156 167.816406 L 213.730469 164.300781 C 215.019531 168.03125 211.421875 174.859375 211.421875 174.859375 C 213.773438 181.957031 207.609375 187.585938 207.609375 187.585938 C 209.378906 192.949219 203.050781 197.523438 203.050781 197.523438 C 203.136719 201.464844 201.816406 203.546875 200.5 204.648438 C 201.679688 203.476562 202.730469 201.433594 202.605469 197.855469 C 202.605469 197.855469 208.714844 193.539062 207.164062 187.917969 C 207.164062 187.917969 213.609375 182.109375 210.976562 175.1875 L 204.773438 182.019531 L 199.769531 189.085938 L 206.703125 182.863281 C 206.703125 182.863281 206.609375 185.710938 203.695312 187.777344 C 203.695312 187.777344 204.554688 196.128906 196.613281 194.308594 L 197.523438 196.949219 L 200.191406 198.40625 L 197.523438 198.40625 C 197.523438 198.40625 200.351562 202.273438 196.613281 204.230469 L 197.523438 206.1875 C 197.523438 206.1875 197.675781 206.171875 197.914062 206.113281 L 197.660156 207.367188 L 196.863281 207.414062 L 196.613281 210.257812 L 207.613281 217.324219 L 208.40625 214.058594 L 202.777344 207.222656 C 205.355469 204.976562 205.976562 198.980469 205.976562 198.980469 Z M 204.113281 150.796875 L 202.636719 147.703125 L 199.257812 150.796875 C 194.730469 147.792969 186.304688 145.738281 186.304688 145.738281 L 186.304688 145.519531 C 186.304688 143.609375 184.753906 142.0625 182.84375 142.0625 L 176.652344 142.0625 C 174.742188 142.0625 173.191406 143.609375 173.191406 145.519531 L 173.191406 146.226562 C 166.996094 147.027344 159.53125 150.796875 159.53125 150.796875 L 157.527344 147.25 L 155.210938 150.074219 L 158.324219 155.804688 L 175.648438 149.523438 C 175.285156 145.066406 177.652344 145.15625 180.371094 144.882812 C 183.089844 144.613281 183.164062 146.230469 183.164062 146.230469 L 183.832031 150.074219 C 192.015625 149.34375 201 155.804688 201 155.804688 Z M 204.113281 150.796875 " fill-opacity="1" fill-rule="nonzero"/><path fill="#020817" d="M 243.539062 207.96875 L 243.535156 207.960938 C 243.132812 206.867188 233.449219 180.8125 216.5625 154.398438 C 216.695312 151.957031 216.203125 150.140625 215.941406 149.363281 C 220.824219 137.386719 216.714844 130.175781 216.535156 129.871094 L 215.621094 128.339844 L 207.886719 141.753906 C 198.96875 129.660156 189.683594 119.808594 180.28125 112.46875 L 179.636719 111.96875 L 178.988281 112.46875 C 169.597656 119.796875 160.320312 129.636719 151.410156 141.722656 L 143.699219 128.335938 L 142.78125 129.871094 C 142.601562 130.175781 138.492188 137.386719 143.375 149.363281 C 143.113281 150.140625 142.632812 151.9375 142.753906 154.339844 C 125.84375 180.773438 116.144531 206.863281 115.738281 207.96875 L 115.570312 208.433594 L 115.820312 208.859375 C 127.492188 228.628906 144.109375 242.394531 155.992188 250.460938 C 168.914062 259.230469 179.164062 263.335938 179.25 263.367188 L 179.640625 263.523438 L 180.023438 263.371094 C 180.117188 263.335938 190.367188 259.230469 203.289062 250.460938 C 215.171875 242.394531 231.789062 228.628906 243.460938 208.859375 L 243.710938 208.433594 Z M 165.929688 194.679688 C 166.296875 196.097656 166.050781 197.625 165.253906 198.871094 L 161.429688 204.882812 C 160.546875 204.785156 159.839844 204.433594 159.273438 203.820312 C 157.433594 201.8125 157.742188 197.71875 157.746094 197.675781 L 157.796875 197.09375 L 157.324219 196.742188 C 151.558594 192.523438 153.109375 188.34375 153.128906 188.300781 L 153.390625 187.621094 L 152.839844 187.140625 C 148.667969 183.46875 148.433594 179.359375 148.824219 176.847656 C 148.949219 177.003906 149.074219 177.160156 149.199219 177.316406 C 149.738281 178 150.277344 178.679688 150.828125 179.347656 C 151.878906 180.648438 152.964844 181.957031 154.140625 183.359375 C 155.273438 184.71875 156.421875 186.066406 157.503906 187.324219 C 158.773438 188.816406 159.890625 190.027344 161.21875 191.09375 L 162.449219 192.082031 L 161.75 190.667969 C 160.996094 189.140625 160.054688 187.789062 158.871094 186.234375 C 157.929688 184.984375 156.828125 183.53125 155.714844 182.09375 C 154.621094 180.671875 153.542969 179.292969 152.507812 178 C 151.976562 177.320312 151.425781 176.644531 150.875 175.972656 C 150.339844 175.3125 149.78125 174.625 149.222656 173.960938 L 149.097656 173.8125 C 146.890625 170.128906 146.894531 166.867188 147.230469 164.90625 L 147.734375 165.542969 C 148.207031 166.140625 148.699219 166.761719 149.195312 167.359375 C 150.144531 168.53125 151.164062 169.769531 152.507812 171.371094 C 153.429688 172.472656 154.378906 173.585938 155.296875 174.664062 L 155.871094 175.339844 C 156.898438 176.542969 158.113281 177.925781 159.585938 179.105469 L 160.816406 180.09375 L 160.117188 178.679688 C 159.285156 176.996094 158.191406 175.507812 157.214844 174.214844 C 156.195312 172.867188 155.140625 171.46875 154.085938 170.105469 C 152.875 168.539062 151.855469 167.238281 150.875 166.011719 C 150.398438 165.40625 149.910156 164.804688 149.421875 164.199219 L 149.242188 163.984375 C 148.753906 163.382812 148.183594 162.675781 147.625 162.019531 C 144.691406 157.773438 144.613281 153.957031 144.96875 151.695312 C 145.164062 151.953125 145.363281 152.214844 145.5625 152.472656 L 145.925781 152.949219 C 146.4375 153.617188 146.953125 154.289062 147.46875 154.945312 C 148.820312 156.679688 150.1875 158.398438 151.347656 159.851562 L 155.277344 164.710938 C 156.6875 166.457031 157.984375 168.015625 159.570312 169.363281 L 160.832031 170.429688 L 160.113281 168.941406 C 159.207031 167.070312 158.023438 165.425781 156.679688 163.621094 L 154.828125 161.105469 L 152.960938 158.601562 C 151.519531 156.679688 150.316406 155.101562 149.183594 153.625 C 148.714844 153.011719 148.238281 152.402344 147.761719 151.792969 L 147.257812 151.152344 C 146.660156 150.382812 146.035156 149.585938 145.414062 148.8125 C 142.179688 141.027344 143.0625 135.40625 143.847656 132.800781 L 161.683594 163.71875 C 163.675781 167.179688 164.613281 171.148438 164.382812 175.1875 C 163.835938 184.816406 165.117188 191.535156 165.929688 194.679688 Z M 194.941406 175.179688 C 194.710938 171.136719 195.640625 167.175781 197.640625 163.710938 L 215.480469 132.78125 C 216.269531 135.382812 217.15625 140.988281 213.90625 148.804688 C 213.269531 149.597656 212.640625 150.398438 212.054688 151.148438 C 211.824219 151.445312 211.59375 151.738281 211.363281 152.035156 C 210.949219 152.558594 210.539062 153.085938 210.132812 153.617188 C 208.796875 155.355469 207.472656 157.109375 206.355469 158.597656 L 204.488281 161.105469 L 202.636719 163.621094 C 201.292969 165.425781 200.109375 167.070312 199.199219 168.941406 L 198.476562 170.429688 L 199.742188 169.363281 C 201.332031 168.011719 202.632812 166.457031 204.039062 164.710938 L 207.972656 159.847656 C 209.207031 158.304688 210.523438 156.648438 211.84375 154.945312 C 212.292969 154.378906 212.734375 153.800781 213.175781 153.230469 L 213.757812 152.472656 C 213.953125 152.21875 214.144531 151.964844 214.339844 151.707031 C 214.683594 153.988281 214.597656 157.816406 211.714844 161.992188 C 211.164062 162.648438 210.617188 163.316406 210.078125 163.980469 L 209.726562 164.417969 C 209.296875 164.949219 208.867188 165.476562 208.449219 166.003906 C 207.476562 167.222656 206.457031 168.523438 205.242188 170.097656 C 204.195312 171.453125 203.144531 172.839844 202.132812 174.179688 L 202.089844 174.234375 C 201.132812 175.496094 200.042969 176.988281 199.207031 178.667969 L 198.503906 180.082031 L 199.738281 179.09375 C 201.070312 178.027344 202.183594 176.816406 203.449219 175.328125 C 204.496094 174.109375 205.679688 172.71875 206.8125 171.363281 C 208.15625 169.761719 209.175781 168.519531 210.125 167.347656 C 210.550781 166.835938 210.964844 166.316406 211.375 165.796875 L 212.09375 164.894531 C 212.425781 166.863281 212.433594 170.132812 210.214844 173.816406 L 210.097656 173.949219 C 209.542969 174.601562 208.996094 175.28125 208.449219 175.960938 C 207.898438 176.628906 207.347656 177.308594 206.8125 177.984375 C 205.875 179.160156 204.882812 180.421875 203.605469 182.082031 C 202.519531 183.492188 201.449219 184.902344 200.457031 186.21875 C 199.273438 187.777344 198.332031 189.125 197.578125 190.65625 L 196.878906 192.066406 L 198.105469 191.082031 C 199.4375 190.011719 200.554688 188.800781 201.816406 187.3125 L 202.164062 186.90625 C 203.160156 185.746094 204.183594 184.542969 205.179688 183.347656 C 206.390625 181.90625 207.472656 180.59375 208.488281 179.339844 C 209.0625 178.644531 209.632812 177.925781 210.121094 177.308594 C 210.246094 177.152344 210.371094 176.992188 210.496094 176.832031 C 210.882812 179.34375 210.648438 183.457031 206.476562 187.125 L 205.9375 187.609375 L 206.183594 188.277344 C 206.25 188.453125 207.671875 192.570312 201.988281 196.730469 L 201.519531 197.078125 L 201.566406 197.660156 C 201.570312 197.703125 201.882812 201.800781 200.039062 203.804688 C 199.472656 204.421875 198.765625 204.769531 197.882812 204.871094 L 194.058594 198.859375 C 193.265625 197.609375 193.019531 196.082031 193.382812 194.667969 C 194.203125 191.535156 195.488281 184.816406 194.941406 175.179688 Z M 179.640625 123.734375 C 187.527344 130.71875 195.355469 139.679688 202.914062 150.367188 L 200.800781 154.03125 C 198.515625 152.316406 192.9375 148.8125 184.46875 147.769531 L 184.46875 147.054688 C 184.46875 145.144531 182.914062 143.59375 181.003906 143.59375 L 178.273438 143.59375 C 176.363281 143.59375 174.8125 145.144531 174.8125 147.054688 L 174.8125 147.773438 C 166.359375 148.824219 160.792969 152.320312 158.515625 154.03125 L 156.390625 150.347656 C 163.941406 139.667969 171.761719 130.714844 179.640625 123.734375 Z M 187.988281 211.695312 L 188.769531 202.675781 L 192.574219 200.433594 L 196.25 206.210938 L 195.574219 212.046875 C 192.445312 212.128906 189.601562 211.878906 187.988281 211.695312 Z M 163.070312 206.207031 L 166.746094 200.433594 L 170.550781 202.671875 L 171.332031 211.691406 C 170.535156 211.78125 169.722656 211.855469 168.910156 211.914062 L 167.09375 205.257812 L 166.246094 212.042969 C 165.367188 212.0625 164.542969 212.0625 163.742188 212.042969 Z M 157.28125 209.082031 C 157.464844 208.9375 157.671875 208.867188 157.921875 208.867188 C 158.089844 208.867188 158.273438 208.902344 158.476562 208.96875 L 161.390625 209.929688 L 161.421875 210.214844 L 156.414062 213.117188 C 156.351562 211.886719 156.433594 209.765625 157.28125 209.082031 Z M 145.027344 168.070312 C 145.214844 170.332031 145.9375 172.550781 147.183594 174.679688 C 146.699219 176.296875 145.246094 182.8125 150.976562 188.261719 C 150.613281 190.027344 150.507812 194.101562 155.632812 198.082031 C 155.597656 199.644531 155.761719 203.082031 157.734375 205.230469 C 158.613281 206.1875 159.726562 206.761719 161.050781 206.941406 L 161.128906 207.636719 L 154.671875 205.503906 L 148.609375 211.066406 L 142.75 209.265625 L 132.664062 216.960938 L 132.464844 216.929688 C 130 213.875 127.710938 210.710938 125.65625 207.523438 C 128.179688 201.246094 134.925781 185.359375 145.027344 168.070312 Z M 192.820312 173.320312 C 192.097656 173.578125 190.894531 174.101562 189.523438 175.085938 L 186.390625 170.382812 L 187.484375 176.832031 C 185.949219 178.375 184.636719 180.265625 183.582031 182.460938 C 182.289062 185.148438 181.367188 188.324219 180.84375 191.898438 L 178.472656 191.898438 C 176.449219 178.039062 169.105469 174.242188 166.503906 173.324219 C 166.515625 172.222656 166.4375 167.769531 164.832031 161.648438 C 165.382812 161.140625 167.449219 159.328125 169.925781 158.503906 L 171.96875 157.824219 L 169.820312 157.824219 C 169.734375 157.824219 168.136719 157.824219 166.378906 158.054688 C 167.527344 157.277344 169.636719 156.125 172.808594 155.417969 L 174.21875 155.105469 L 172.820312 154.742188 C 172.730469 154.71875 171.09375 154.296875 169.351562 154.183594 C 170.78125 153.652344 172.90625 153 174.8125 152.972656 L 174.8125 165.628906 C 174.8125 167.535156 176.363281 169.089844 178.273438 169.089844 L 181.003906 169.089844 C 182.765625 169.089844 184.246094 167.769531 184.4375 166.039062 L 186.300781 155.527344 C 187.171875 155.535156 189.917969 155.671875 192.382812 156.914062 L 193.703125 157.582031 L 192.816406 156.394531 C 192.765625 156.324219 191.695312 154.898438 189.996094 153.378906 C 192.035156 153.863281 195.976562 155.050781 198.8125 157.488281 L 195.824219 162.671875 C 193.964844 165.882812 192.929688 169.5625 192.820312 173.320312 Z M 182.371094 147.054688 L 182.371094 158.429688 C 181.644531 154.53125 180.726562 148.414062 181.652344 146.363281 C 181.75 146.167969 181.855469 146.085938 181.882812 146.085938 C 181.910156 146.085938 182.0625 146.160156 182.269531 146.542969 C 182.339844 146.707031 182.371094 146.878906 182.371094 147.054688 Z M 176.90625 147.738281 C 176.90625 146.867188 177.101562 146.648438 177.160156 146.605469 C 177.175781 146.59375 177.203125 146.574219 177.25 146.574219 C 177.265625 146.574219 177.28125 146.574219 177.300781 146.578125 C 177.339844 146.59375 177.378906 146.605469 177.425781 146.628906 C 177.679688 146.75 177.910156 146.96875 178.117188 147.285156 C 178.40625 147.71875 178.640625 148.332031 178.816406 149.097656 L 178.96875 149.777344 C 179.792969 153.355469 182.300781 164.253906 180.429688 166.609375 C 180.222656 166.871094 179.976562 166.988281 179.664062 166.988281 L 178.277344 166.988281 C 177.523438 166.988281 176.910156 166.375 176.910156 165.621094 L 176.910156 147.738281 Z M 204.070312 148.375 C 196.363281 137.582031 188.378906 128.558594 180.328125 121.550781 L 179.640625 120.953125 L 178.953125 121.550781 C 170.921875 128.542969 162.945312 137.558594 155.238281 148.351562 L 152.554688 143.695312 C 161.308594 131.714844 170.417969 121.9375 179.640625 114.621094 C 188.871094 121.949219 197.992188 131.738281 206.746094 143.730469 Z M 143.238281 157.496094 C 143.703125 159.304688 144.5 161.074219 145.609375 162.765625 C 145.5625 162.902344 145.511719 163.0625 145.460938 163.25 C 133.878906 182.351562 126.253906 200.375 123.507812 207.242188 L 123.308594 207.742188 L 123.597656 208.191406 C 125.347656 210.953125 127.292969 213.714844 129.382812 216.417969 L 127.996094 216.1875 L 124.949219 218.65625 C 122.359375 215.257812 119.984375 211.75 117.882812 208.226562 C 119.132812 204.910156 128.164062 181.5625 143.238281 157.496094 Z M 128.347656 218.59375 C 134.949219 233.671875 153.039062 239.910156 153.226562 239.972656 L 156.121094 240.949219 L 153.519531 239.347656 C 140.453125 231.296875 134.492188 220.667969 133.566406 218.90625 L 142.890625 211.785156 C 147.675781 229.191406 164.679688 238.132812 164.851562 238.222656 L 167.203125 239.433594 L 165.25 237.652344 C 151.8125 225.425781 149.664062 214.636719 149.425781 213.160156 L 152.074219 210.734375 C 152.773438 212.796875 155.851562 220.207031 164.859375 224.144531 C 169.070312 226.109375 174.152344 227.390625 179.554688 227.847656 C 181.234375 227.992188 183.023438 228.0625 184.863281 228.0625 C 195.871094 228.0625 205.660156 225.480469 208.820312 224.554688 C 209.5625 226.023438 210.542969 227.480469 211.742188 228.894531 C 206.28125 231.527344 192.191406 234.621094 192.042969 234.652344 L 191.984375 234.667969 L 182.402344 240.78125 C 177.625 242.566406 168.210938 244.375 168.117188 244.394531 L 165.625 244.875 L 168.152344 245.085938 C 190.347656 246.96875 210.84375 232.40625 213.304688 230.585938 C 214.921875 232.21875 216.863281 233.804688 219.074219 235.316406 C 213.839844 240.132812 208.148438 244.636719 202.144531 248.707031 C 190.867188 256.363281 181.699219 260.402344 179.640625 261.261719 C 177.585938 260.398438 168.417969 256.359375 157.140625 248.707031 C 148.785156 243.035156 136.664062 233.515625 126.230469 220.3125 Z M 209.074219 217.277344 C 209.054688 215.101562 209.582031 213.226562 210.191406 211.792969 C 210.328125 214.226562 211.183594 219.171875 215.476562 224.535156 C 214.25 223.65625 212.679688 222.191406 211.765625 220.023438 L 211.027344 218.277344 L 211.09375 220.171875 C 211.105469 220.445312 211.421875 226.878906 219.816406 232.105469 L 221.421875 233.105469 C 221.164062 233.355469 220.902344 233.601562 220.640625 233.847656 C 215.511719 230.421875 212.042969 226.726562 210.332031 222.867188 L 210.242188 222.664062 C 209.484375 220.898438 209.09375 219.085938 209.074219 217.277344 Z M 220.269531 231.589844 C 220.257812 231.574219 219.425781 230.570312 218.527344 229.304688 C 219.5 229.90625 220.914062 230.613281 222.839844 231.1875 L 223.246094 231.308594 C 222.660156 231.898438 222.070312 232.480469 221.484375 233.042969 Z M 223.164062 230.589844 C 223.136719 230.570312 221.066406 228.777344 220.28125 226.316406 C 221.707031 227.519531 223.261719 228.625 224.917969 229.605469 C 224.480469 230.0625 224.039062 230.515625 223.59375 230.957031 Z M 222.804688 213.5625 C 222.871094 213.589844 229.488281 216.375 229.488281 221.53125 C 229.488281 223.585938 228.449219 225.777344 226.390625 228.042969 C 216.339844 222.246094 213.179688 213.410156 212.296875 209.996094 Z M 210.558594 207.195312 L 210.09375 207.757812 C 209.828125 208.085938 207.546875 211.03125 207.070312 215.523438 L 197.898438 210.214844 L 198.273438 206.941406 C 199.597656 206.761719 200.707031 206.1875 201.585938 205.230469 C 203.558594 203.082031 203.722656 199.644531 203.6875 198.082031 C 208.8125 194.097656 208.710938 190.027344 208.34375 188.261719 C 214.074219 182.808594 212.617188 176.296875 212.136719 174.679688 C 213.375 172.5625 214.097656 170.355469 214.289062 168.109375 C 224.355469 185.351562 231.097656 201.238281 233.621094 207.511719 C 232.3125 209.546875 230.894531 211.585938 229.398438 213.589844 Z M 235.683594 208.183594 L 235.96875 207.734375 L 235.773438 207.238281 C 233.042969 200.386719 225.441406 182.40625 213.882812 163.320312 C 213.828125 163.125 213.773438 162.9375 213.714844 162.761719 C 214.8125 161.085938 215.605469 159.332031 216.070312 157.535156 C 231.128906 181.585938 240.148438 204.90625 241.398438 208.21875 C 239.875 210.777344 238.171875 213.375 236.332031 215.941406 L 231.484375 214.300781 C 232.996094 212.25 234.40625 210.195312 235.683594 208.183594 Z M 177.351562 255.117188 C 177.886719 255.195312 178.429688 255.230469 178.988281 255.230469 C 188.90625 255.230469 201.917969 243.804688 202.054688 243.683594 L 204.148438 241.832031 L 201.660156 243.113281 C 186.089844 251.15625 171.132812 250.179688 170.980469 250.171875 L 170.289062 250.121094 L 170.660156 250.703125 C 172.257812 253.230469 174.507812 254.71875 177.351562 255.117188 Z M 170.523438 171.117188 L 168.539062 170.867188 L 170.320312 171.773438 C 170.378906 171.800781 176.128906 174.800781 178.617188 182.964844 L 179.160156 184.753906 L 179.296875 182.886719 C 179.304688 182.78125 179.964844 172.300781 170.523438 171.117188 Z M 170.523438 171.117188 " fill-opacity="1" fill-rule="nonzero"/></svg>