<svg xmlns="http://www.w3.org/2000/svg" xmlns:xlink="http://www.w3.org/1999/xlink" width="500" zoomAndPan="magnify" viewBox="0 0 375 374.999991" height="500" preserveAspectRatio="xMidYMid meet" version="1.0"><defs><clipPath id="c9eff2b0fe"><path d="M 153 223 L 175 223 L 175 258.941406 L 153 258.941406 Z M 153 223 " clip-rule="nonzero"/></clipPath><clipPath id="0ec8b2a31e"><path d="M 153 223 L 176 223 L 176 258.941406 L 153 258.941406 Z M 153 223 " clip-rule="nonzero"/></clipPath><clipPath id="63bf79bc3d"><path d="M 179 134 L 257.621094 134 L 257.621094 238 L 179 238 Z M 179 134 " clip-rule="nonzero"/></clipPath><clipPath id="c5f4b712dc"><path d="M 125.621094 124.691406 L 200 124.691406 L 200 239 L 125.621094 239 Z M 125.621094 124.691406 " clip-rule="nonzero"/></clipPath><clipPath id="83c864c742"><path d="M 178 134 L 257.621094 134 L 257.621094 239 L 178 239 Z M 178 134 " clip-rule="nonzero"/></clipPath></defs><path fill="#f7ebe0" d="M 206.484375 217.269531 C 206.484375 217.269531 216.664062 230.710938 225.167969 232.582031 C 233.671875 234.457031 244.246094 225.824219 240.652344 220.960938 C 236.757812 215.695312 228.421875 220.441406 228.421875 220.441406 L 224.238281 215.199219 Z M 206.484375 217.269531 " fill-opacity="1" fill-rule="nonzero"/><path fill="#3f120f" d="M 227.65625 233.371094 C 226.777344 233.375 225.910156 233.28125 225.054688 233.097656 C 216.460938 231.203125 206.484375 218.140625 206.0625 217.585938 C 205.9375 217.425781 205.917969 217.25 205.996094 217.0625 C 206.078125 216.875 206.21875 216.769531 206.421875 216.746094 L 224.179688 214.675781 C 224.371094 214.65625 224.53125 214.71875 224.652344 214.871094 L 228.558594 219.769531 C 229.964844 219.0625 231.433594 218.542969 232.96875 218.210938 C 236.546875 217.476562 239.351562 218.320312 241.074219 220.648438 C 242.285156 222.28125 242.164062 224.386719 240.742188 226.574219 C 238.390625 230.191406 232.941406 233.371094 227.65625 233.371094 Z M 207.476562 217.679688 C 209.734375 220.488281 218.195312 230.507812 225.28125 232.066406 C 230.761719 233.273438 237.363281 229.839844 239.859375 226.003906 C 240.535156 224.964844 241.484375 222.964844 240.230469 221.269531 C 236.660156 216.445312 228.761719 220.851562 228.679688 220.894531 C 228.566406 220.960938 228.449219 220.980469 228.320312 220.957031 C 228.195312 220.929688 228.089844 220.867188 228.007812 220.765625 L 224.011719 215.753906 Z M 207.476562 217.679688 " fill-opacity="1" fill-rule="nonzero"/><g clip-path="url(#c9eff2b0fe)"><path fill="#f7ebe0" d="M 159.414062 223.992188 C 159.414062 223.992188 151.953125 239.109375 154.09375 247.535156 C 156.234375 255.964844 168.820312 261.578125 171.449219 256.136719 C 174.792969 249.207031 166.421875 244.988281 166.421875 244.988281 L 174.792969 231.359375 Z M 159.414062 223.992188 " fill-opacity="1" fill-rule="nonzero"/></g><g clip-path="url(#0ec8b2a31e)"><path fill="#3f120f" d="M 167.46875 258.8125 C 167.179688 258.8125 166.890625 258.796875 166.601562 258.769531 C 161.652344 258.269531 155.089844 253.589844 153.585938 247.664062 C 151.421875 239.148438 158.632812 224.382812 158.941406 223.757812 C 159.007812 223.628906 159.105469 223.542969 159.242188 223.496094 C 159.378906 223.449219 159.511719 223.453125 159.640625 223.515625 L 175.023438 230.882812 C 175.164062 230.953125 175.257812 231.058594 175.300781 231.210938 C 175.34375 231.359375 175.324219 231.5 175.246094 231.632812 L 167.152344 244.800781 C 168.964844 245.890625 174.953125 250.089844 171.921875 256.363281 C 171.148438 257.960938 169.585938 258.8125 167.46875 258.8125 Z M 159.660156 224.691406 C 158.445312 227.296875 152.746094 240.082031 154.605469 247.40625 C 156.003906 252.910156 162.105469 257.261719 166.707031 257.722656 C 168.179688 257.871094 170.121094 257.675781 170.976562 255.90625 C 172.257812 253.25 171.867188 250.699219 169.8125 248.328125 C 168.769531 247.164062 167.5625 246.207031 166.1875 245.457031 C 166.050781 245.386719 165.960938 245.28125 165.917969 245.132812 C 165.875 244.984375 165.894531 244.84375 165.976562 244.714844 L 174.042969 231.578125 Z M 159.660156 224.691406 " fill-opacity="1" fill-rule="nonzero"/></g><g clip-path="url(#63bf79bc3d)"><path fill="#f7ebe0" d="M 257.09375 203.167969 L 179.054688 237.898438 L 199.078125 134.777344 Z M 257.09375 203.167969 " fill-opacity="1" fill-rule="nonzero"/></g><path fill="#f7ebe0" d="M 126.144531 213.554688 L 179.054688 237.898438 L 199.078125 134.777344 L 164.1875 125.34375 Z M 126.144531 213.554688 " fill-opacity="1" fill-rule="nonzero"/><g clip-path="url(#c5f4b712dc)"><path fill="#3f120f" d="M 179.054688 238.425781 C 178.976562 238.425781 178.902344 238.410156 178.832031 238.375 L 125.925781 214.03125 C 125.796875 213.972656 125.707031 213.875 125.65625 213.742188 C 125.605469 213.609375 125.605469 213.476562 125.664062 213.347656 L 163.707031 125.132812 C 163.757812 125.015625 163.84375 124.925781 163.960938 124.867188 C 164.078125 124.8125 164.199219 124.800781 164.328125 124.835938 L 199.214844 134.269531 C 199.351562 134.304688 199.453125 134.382812 199.527344 134.5 C 199.597656 134.617188 199.621094 134.742188 199.59375 134.878906 L 179.570312 238 C 179.546875 238.121094 179.488281 238.226562 179.390625 238.304688 C 179.292969 238.386719 179.183594 238.425781 179.054688 238.425781 Z M 126.832031 213.292969 L 178.664062 237.144531 L 198.46875 135.15625 L 164.492188 125.96875 Z M 126.832031 213.292969 " fill-opacity="1" fill-rule="nonzero"/></g><path fill="#3f120f" d="M 148.828125 223.992188 L 162.613281 230.335938 L 189.320312 132.140625 L 179.054688 129.363281 Z M 148.828125 223.992188 " fill-opacity="1" fill-rule="nonzero"/><path fill="#ffffff" d="M 212.523438 185.164062 C 212.699219 185.761719 212.835938 186.359375 212.9375 186.964844 C 213.039062 187.570312 213.105469 188.164062 213.128906 188.753906 C 213.15625 189.34375 213.140625 189.917969 213.089844 190.46875 C 213.039062 191.019531 212.949219 191.542969 212.824219 192.039062 C 212.699219 192.53125 212.535156 192.988281 212.339844 193.40625 C 212.140625 193.820312 211.914062 194.191406 211.652344 194.515625 C 211.394531 194.835938 211.105469 195.109375 210.792969 195.324219 C 210.480469 195.542969 210.148438 195.703125 209.796875 195.804688 C 209.441406 195.910156 209.074219 195.953125 208.695312 195.9375 C 208.3125 195.921875 207.925781 195.851562 207.53125 195.71875 C 207.140625 195.585938 206.746094 195.394531 206.355469 195.152344 C 205.964844 194.90625 205.585938 194.609375 205.210938 194.261719 C 204.835938 193.914062 204.480469 193.519531 204.140625 193.082031 C 203.796875 192.644531 203.480469 192.167969 203.183594 191.660156 C 202.886719 191.148438 202.617188 190.609375 202.378906 190.046875 C 202.136719 189.484375 201.929688 188.902344 201.757812 188.308594 C 201.582031 187.710938 201.445312 187.113281 201.34375 186.507812 C 201.238281 185.902344 201.175781 185.308594 201.148438 184.71875 C 201.125 184.128906 201.136719 183.554688 201.1875 183.003906 C 201.238281 182.453125 201.328125 181.929688 201.457031 181.433594 C 201.582031 180.941406 201.742188 180.484375 201.941406 180.066406 C 202.136719 179.652344 202.367188 179.28125 202.625 178.957031 C 202.886719 178.632812 203.171875 178.363281 203.484375 178.148438 C 203.796875 177.929688 204.128906 177.769531 204.484375 177.667969 C 204.835938 177.5625 205.203125 177.519531 205.585938 177.535156 C 205.964844 177.550781 206.351562 177.621094 206.746094 177.753906 C 207.140625 177.886719 207.53125 178.078125 207.921875 178.320312 C 208.3125 178.566406 208.695312 178.863281 209.070312 179.210938 C 209.441406 179.558594 209.800781 179.953125 210.140625 180.390625 C 210.480469 180.828125 210.800781 181.304688 211.097656 181.8125 C 211.394531 182.324219 211.660156 182.863281 211.902344 183.425781 C 212.140625 183.988281 212.347656 184.570312 212.523438 185.164062 Z M 212.523438 185.164062 " fill-opacity="1" fill-rule="nonzero"/><path fill="#ffffff" d="M 224.523438 182.433594 C 224.617188 183.046875 224.675781 183.660156 224.695312 184.273438 C 224.71875 184.886719 224.703125 185.484375 224.648438 186.074219 C 224.597656 186.660156 224.507812 187.226562 224.382812 187.765625 C 224.257812 188.308594 224.101562 188.8125 223.910156 189.289062 C 223.71875 189.761719 223.5 190.191406 223.25 190.578125 C 222.996094 190.964844 222.722656 191.300781 222.421875 191.585938 C 222.121094 191.871094 221.800781 192.101562 221.464844 192.277344 C 221.125 192.449219 220.773438 192.566406 220.410156 192.621094 C 220.046875 192.675781 219.675781 192.671875 219.300781 192.605469 C 218.925781 192.542969 218.550781 192.417969 218.179688 192.234375 C 217.804688 192.050781 217.441406 191.8125 217.089844 191.515625 C 216.734375 191.222656 216.394531 190.878906 216.070312 190.484375 C 215.746094 190.089844 215.445312 189.652344 215.164062 189.171875 C 214.882812 188.695312 214.628906 188.183594 214.40625 187.636719 C 214.179688 187.089844 213.984375 186.523438 213.820312 185.933594 C 213.65625 185.339844 213.527344 184.738281 213.433594 184.125 C 213.339844 183.511719 213.285156 182.898438 213.261719 182.289062 C 213.242188 181.675781 213.257812 181.074219 213.308594 180.488281 C 213.363281 179.898438 213.449219 179.335938 213.574219 178.792969 C 213.699219 178.253906 213.855469 177.746094 214.046875 177.273438 C 214.238281 176.800781 214.460938 176.371094 214.710938 175.984375 C 214.960938 175.597656 215.238281 175.261719 215.535156 174.972656 C 215.835938 174.6875 216.15625 174.457031 216.496094 174.285156 C 216.835938 174.109375 217.1875 173.996094 217.550781 173.9375 C 217.914062 173.882812 218.285156 173.886719 218.660156 173.953125 C 219.035156 174.019531 219.40625 174.144531 219.78125 174.328125 C 220.152344 174.507812 220.515625 174.75 220.871094 175.042969 C 221.226562 175.335938 221.566406 175.683594 221.886719 176.078125 C 222.210938 176.472656 222.515625 176.90625 222.792969 177.386719 C 223.074219 177.867188 223.328125 178.378906 223.554688 178.925781 C 223.78125 179.46875 223.976562 180.039062 224.136719 180.628906 C 224.300781 181.21875 224.429688 181.820312 224.523438 182.433594 Z M 224.523438 182.433594 " fill-opacity="1" fill-rule="nonzero"/><path fill="#dd3326" d="M 205.710938 203.355469 C 205.351562 203.058594 202.234375 211.585938 204.992188 212.371094 C 207.753906 213.160156 210.03125 210.933594 211.523438 204.085938 C 211.523438 204.085938 206.824219 204.269531 205.710938 203.355469 Z M 205.710938 203.355469 " fill-opacity="1" fill-rule="nonzero"/><path fill="#3f120f" d="M 206.015625 213.046875 C 205.621094 213.046875 205.230469 212.988281 204.847656 212.878906 C 204.3125 212.726562 203.925781 212.398438 203.691406 211.894531 C 202.988281 210.480469 203.472656 207.628906 205.125 203.414062 C 205.167969 203.300781 205.199219 203.222656 205.210938 203.1875 C 205.261719 203.054688 205.351562 202.957031 205.480469 202.898438 C 205.605469 202.835938 205.738281 202.828125 205.871094 202.871094 C 206.007812 202.917969 206.109375 203.003906 206.171875 203.128906 C 206.238281 203.253906 206.25 203.386719 206.210938 203.523438 C 206.195312 203.5625 206.160156 203.65625 206.105469 203.800781 C 204.085938 208.949219 204.316406 210.789062 204.632812 211.429688 C 204.734375 211.65625 204.898438 211.800781 205.136719 211.867188 C 205.910156 212.121094 206.648438 212.042969 207.34375 211.625 C 208.867188 210.714844 210.101562 208.140625 211.007812 203.972656 C 211.039062 203.832031 211.113281 203.722656 211.238281 203.640625 C 211.359375 203.5625 211.492188 203.539062 211.632812 203.570312 C 211.773438 203.601562 211.886719 203.679688 211.964844 203.800781 C 212.042969 203.921875 212.066406 204.054688 212.035156 204.195312 C 211.054688 208.71875 209.695312 211.445312 207.886719 212.527344 C 207.3125 212.875 206.6875 213.050781 206.015625 213.046875 Z M 206.015625 213.046875 " fill-opacity="1" fill-rule="nonzero"/><path fill="#3f120f" d="M 206.484375 210.402344 C 206.402344 210.402344 206.324219 210.386719 206.25 210.347656 C 206.175781 210.3125 206.113281 210.261719 206.0625 210.195312 C 206.011719 210.128906 205.980469 210.054688 205.964844 209.972656 C 205.949219 209.894531 205.953125 209.8125 205.976562 209.734375 L 207.691406 203.785156 C 207.730469 203.644531 207.816406 203.539062 207.941406 203.46875 C 208.070312 203.398438 208.203125 203.382812 208.34375 203.425781 C 208.484375 203.464844 208.589844 203.546875 208.660156 203.675781 C 208.730469 203.800781 208.742188 203.933594 208.703125 204.074219 L 206.988281 210.023438 C 206.914062 210.277344 206.746094 210.402344 206.484375 210.402344 Z M 206.484375 210.402344 " fill-opacity="1" fill-rule="nonzero"/><g clip-path="url(#83c864c742)"><path fill="#3f120f" d="M 179.054688 238.425781 C 178.890625 238.425781 178.753906 238.363281 178.648438 238.234375 C 178.542969 238.105469 178.507812 237.960938 178.539062 237.800781 L 198.5625 134.675781 C 198.601562 134.460938 198.730469 134.324219 198.945312 134.269531 C 199.160156 134.214844 199.335938 134.269531 199.480469 134.4375 L 257.496094 202.828125 C 257.546875 202.890625 257.585938 202.964844 257.605469 203.042969 C 257.625 203.125 257.625 203.203125 257.605469 203.285156 C 257.589844 203.367188 257.550781 203.4375 257.5 203.503906 C 257.445312 203.566406 257.382812 203.613281 257.308594 203.648438 L 179.269531 238.378906 C 179.199219 238.410156 179.128906 238.425781 179.054688 238.425781 Z M 199.386719 135.953125 L 179.761719 237.007812 L 256.238281 202.972656 Z M 199.386719 135.953125 " fill-opacity="1" fill-rule="nonzero"/></g><path fill="#3f120f" d="M 162.613281 230.859375 C 162.535156 230.859375 162.460938 230.84375 162.390625 230.8125 L 148.605469 224.46875 C 148.488281 224.414062 148.398438 224.324219 148.347656 224.203125 C 148.292969 224.082031 148.285156 223.957031 148.328125 223.832031 L 178.554688 129.203125 C 178.597656 129.070312 178.679688 128.96875 178.804688 128.902344 C 178.929688 128.832031 179.058594 128.816406 179.195312 128.855469 L 189.460938 131.632812 C 189.601562 131.667969 189.707031 131.75 189.777344 131.878906 C 189.851562 132.003906 189.867188 132.136719 189.832031 132.277344 L 163.121094 230.472656 C 163.050781 230.730469 162.878906 230.859375 162.613281 230.859375 Z M 149.46875 223.707031 L 162.265625 229.597656 L 188.675781 132.507812 L 179.402344 130 Z M 149.46875 223.707031 " fill-opacity="1" fill-rule="nonzero"/><path fill="#5eb562" d="M 189.320312 132.140625 L 162.613281 230.335938 C 162.613281 230.335938 155.4375 232.546875 154.386719 230.335938 C 153.335938 228.121094 158.59375 223.921875 160.695312 217.972656 C 162.796875 212.023438 158.21875 206.421875 162.613281 201.523438 C 167.007812 196.625 173.058594 190.402344 171.785156 186.339844 C 170.511719 182.273438 170.160156 176.324219 174.71875 168.625 C 179.273438 160.925781 177.082031 153.226562 179.054688 144.125 C 181.027344 135.027344 192.253906 121.363281 189.320312 132.140625 Z M 189.320312 132.140625 " fill-opacity="1" fill-rule="nonzero"/><path fill="#3f120f" d="M 157.0625 231.847656 C 155.628906 231.847656 154.375 231.535156 153.910156 230.558594 C 153.222656 229.113281 154.464844 227.339844 156.183594 224.890625 C 157.542969 222.949219 159.234375 220.53125 160.199219 217.796875 C 161.066406 215.351562 160.738281 212.921875 160.421875 210.570312 C 159.996094 207.40625 159.558594 204.140625 162.21875 201.171875 C 162.570312 200.78125 162.933594 200.382812 163.300781 199.972656 C 167.339844 195.507812 172.367188 189.949219 171.28125 186.496094 C 169.5 180.8125 170.503906 174.710938 174.265625 168.359375 C 177.035156 163.679688 177.253906 158.925781 177.488281 153.890625 C 177.632812 150.746094 177.785156 147.496094 178.539062 144.015625 C 179.933594 137.589844 185.96875 128.550781 188.707031 127.722656 C 188.910156 127.644531 189.117188 127.625 189.332031 127.667969 C 189.546875 127.707031 189.734375 127.804688 189.894531 127.953125 C 190.503906 128.542969 190.484375 129.875 189.828125 132.277344 L 163.121094 230.472656 C 163.070312 230.65625 162.953125 230.777344 162.769531 230.835938 C 161.992188 231.074219 159.308594 231.847656 157.0625 231.847656 Z M 189.144531 128.703125 C 188.976562 128.726562 188.820312 128.785156 188.679688 128.882812 C 186.191406 130.324219 180.855469 138.296875 179.570312 144.238281 C 178.832031 147.632812 178.683594 150.839844 178.539062 153.941406 C 178.296875 159.109375 178.070312 163.988281 175.171875 168.894531 C 171.570312 174.976562 170.601562 180.796875 172.289062 186.183594 C 173.550781 190.210938 168.519531 195.773438 164.082031 200.679688 C 163.714844 201.085938 163.355469 201.484375 163.003906 201.875 C 160.667969 204.480469 161.039062 207.238281 161.464844 210.429688 C 161.800781 212.90625 162.140625 215.464844 161.195312 218.148438 C 160.179688 221.019531 158.441406 223.5 157.046875 225.492188 C 155.648438 227.488281 154.4375 229.214844 154.863281 230.109375 C 155.433594 231.3125 159.390625 230.734375 162.183594 229.914062 L 188.8125 132 C 189.585938 129.15625 189.164062 128.707031 189.160156 128.703125 C 189.152344 128.703125 189.148438 128.703125 189.144531 128.703125 Z M 189.320312 132.140625 Z M 189.320312 132.140625 " fill-opacity="1" fill-rule="nonzero"/><path fill="#dd3326" d="M 148.828125 223.992188 L 138.511719 219.246094 L 155.261719 178.25 L 162.613281 180.835938 Z M 148.828125 223.992188 " fill-opacity="1" fill-rule="nonzero"/><path fill="#dd3326" d="M 155.261719 178.25 L 174.683594 128.179688 L 179.054688 129.363281 L 162.613281 180.835938 Z M 155.261719 178.25 " fill-opacity="1" fill-rule="nonzero"/><path fill="#3f120f" d="M 148.828125 224.515625 C 148.75 224.515625 148.675781 224.5 148.605469 224.46875 L 138.292969 219.722656 C 138.164062 219.664062 138.074219 219.566406 138.023438 219.4375 C 137.96875 219.304688 137.972656 219.175781 138.023438 219.046875 L 154.777344 178.050781 C 154.828125 177.921875 154.917969 177.828125 155.046875 177.769531 C 155.175781 177.710938 155.304688 177.707031 155.4375 177.753906 L 162.785156 180.339844 C 162.921875 180.386719 163.019531 180.476562 163.082031 180.601562 C 163.144531 180.730469 163.15625 180.859375 163.113281 180.996094 L 149.328125 224.148438 C 149.25 224.394531 149.082031 224.515625 148.828125 224.515625 Z M 139.1875 218.976562 L 148.507812 223.265625 L 161.957031 181.164062 L 155.5625 178.914062 Z M 139.1875 218.976562 " fill-opacity="1" fill-rule="nonzero"/><path fill="#3f120f" d="M 162.613281 181.363281 C 162.550781 181.363281 162.492188 181.351562 162.4375 181.332031 L 155.085938 178.746094 C 154.949219 178.695312 154.847656 178.601562 154.785156 178.46875 C 154.722656 178.332031 154.71875 178.199219 154.773438 178.058594 L 174.195312 127.992188 C 174.242188 127.867188 174.328125 127.773438 174.445312 127.710938 C 174.566406 127.652344 174.691406 127.636719 174.820312 127.671875 L 179.191406 128.855469 C 179.335938 128.894531 179.445312 128.980469 179.515625 129.109375 C 179.585938 129.242188 179.601562 129.378906 179.554688 129.519531 L 163.113281 180.996094 C 163.035156 181.242188 162.867188 181.363281 162.613281 181.363281 Z M 155.949219 177.933594 L 162.273438 180.160156 L 178.386719 129.726562 L 175.003906 128.8125 Z M 155.949219 177.933594 " fill-opacity="1" fill-rule="nonzero"/><path fill="#5eb562" d="M 174.683594 128.179688 C 174.683594 128.179688 175.242188 125.75 173.839844 126.101562 C 172.4375 126.453125 167.886719 128.777344 167.160156 131.527344 C 165.953125 136.078125 167.507812 140.742188 161.046875 155.675781 C 159.003906 160.398438 147.601562 175.625 146.148438 183.148438 C 144.699219 190.671875 144.746094 201.121094 137.5625 209.746094 C 134.058594 213.949219 136.917969 223.144531 138.511719 219.246094 L 155.261719 178.25 Z M 174.683594 128.179688 " fill-opacity="1" fill-rule="nonzero"/><path fill="#3f120f" d="M 137.632812 220.710938 C 137.246094 220.710938 136.699219 220.492188 136.203125 219.484375 C 135.214844 217.46875 134.6875 212.375 137.15625 209.410156 C 142.785156 202.652344 143.886719 194.859375 144.855469 187.988281 C 145.101562 186.242188 145.335938 184.589844 145.632812 183.046875 C 146.597656 178.046875 151.742188 169.914062 155.875 163.378906 C 158.015625 159.996094 159.867188 157.074219 160.5625 155.464844 C 165.171875 144.816406 165.667969 139.476562 166.03125 135.578125 C 166.121094 134.164062 166.324219 132.769531 166.648438 131.390625 C 167.449219 128.367188 172.285156 125.949219 173.710938 125.589844 C 174.15625 125.445312 174.546875 125.53125 174.882812 125.851562 C 175.5625 126.515625 175.261719 128.003906 175.195312 128.296875 C 175.191406 128.320312 175.183594 128.347656 175.171875 128.371094 L 155.753906 178.4375 L 139 219.441406 C 138.660156 220.265625 138.214844 220.691406 137.667969 220.710938 Z M 174.101562 126.59375 C 174.054688 126.59375 174.011719 126.601562 173.96875 126.609375 C 172.605469 126.953125 168.316406 129.21875 167.667969 131.660156 C 167.363281 132.984375 167.167969 134.320312 167.082031 135.675781 C 166.710938 139.644531 166.207031 145.082031 161.53125 155.882812 C 160.804688 157.566406 158.933594 160.519531 156.769531 163.941406 C 152.679688 170.402344 147.59375 178.441406 146.667969 183.25 C 146.375 184.765625 146.144531 186.402344 145.898438 188.132812 C 144.957031 194.800781 143.789062 203.09375 137.96875 210.082031 C 136.015625 212.425781 136.191406 216.425781 136.9375 218.515625 C 137.257812 219.414062 137.570312 219.648438 137.640625 219.660156 C 137.636719 219.65625 137.808594 219.578125 138.027344 219.046875 L 154.777344 178.050781 L 174.179688 128.027344 C 174.308594 127.433594 174.296875 126.746094 174.148438 126.601562 C 174.132812 126.59375 174.117188 126.589844 174.101562 126.59375 Z M 174.6875 128.179688 Z M 174.6875 128.179688 " fill-opacity="1" fill-rule="nonzero"/><path fill="#3f120f" d="M 225.367188 223.046875 C 225.148438 223.046875 224.992188 222.949219 224.894531 222.753906 C 224.796875 222.554688 224.816406 222.371094 224.953125 222.199219 C 225.617188 221.347656 227.914062 220.113281 228.171875 219.976562 C 228.300781 219.90625 228.4375 219.894531 228.578125 219.9375 C 228.714844 219.976562 228.820312 220.0625 228.890625 220.191406 C 228.957031 220.320312 228.96875 220.457031 228.925781 220.59375 C 228.882812 220.734375 228.796875 220.835938 228.667969 220.90625 C 227.761719 221.386719 226.179688 222.335938 225.78125 222.84375 C 225.675781 222.980469 225.539062 223.046875 225.367188 223.046875 Z M 225.367188 223.046875 " fill-opacity="1" fill-rule="nonzero"/><path fill="#3f120f" d="M 166.421875 245.511719 C 166.324219 245.511719 166.230469 245.488281 166.148438 245.4375 L 164.101562 244.1875 C 163.976562 244.113281 163.898438 244.003906 163.867188 243.863281 C 163.832031 243.722656 163.851562 243.589844 163.929688 243.464844 C 164.003906 243.34375 164.113281 243.265625 164.253906 243.230469 C 164.394531 243.195312 164.527344 243.214844 164.652344 243.292969 L 166.695312 244.539062 C 166.921875 244.675781 167 244.875 166.929688 245.128906 C 166.855469 245.386719 166.6875 245.511719 166.421875 245.511719 Z M 166.421875 245.511719 " fill-opacity="1" fill-rule="nonzero"/><path fill="#3f120f" d="M 210.445312 204.597656 C 204.15625 204.597656 200.136719 201.054688 198.339844 199.011719 C 198.257812 199.964844 197.902344 201.054688 196.800781 201.621094 C 196.671875 201.683594 196.539062 201.695312 196.402344 201.648438 C 196.265625 201.605469 196.164062 201.519531 196.097656 201.390625 C 196.03125 201.261719 196.019531 201.128906 196.0625 200.992188 C 196.105469 200.855469 196.191406 200.753906 196.316406 200.6875 C 197.773438 199.941406 197.191406 197.480469 197.1875 197.453125 C 197.15625 197.328125 197.167969 197.207031 197.226562 197.09375 C 197.285156 196.976562 197.375 196.894531 197.496094 196.84375 C 197.613281 196.796875 197.738281 196.789062 197.859375 196.828125 C 197.984375 196.871094 198.078125 196.945312 198.144531 197.054688 C 198.417969 197.492188 204.902344 207.691406 218.496094 201.683594 C 224.203125 199.160156 227.660156 195.054688 228.777344 189.476562 C 229.285156 186.902344 229.269531 184.328125 228.738281 181.757812 L 228.734375 181.742188 C 228.699219 181.601562 228.71875 181.472656 228.792969 181.347656 C 228.867188 181.222656 228.976562 181.144531 229.117188 181.109375 C 229.257812 181.074219 229.390625 181.09375 229.515625 181.167969 C 229.640625 181.242188 229.71875 181.351562 229.753906 181.492188 L 229.753906 181.5 C 229.765625 181.542969 230.28125 183.519531 231.855469 183.726562 C 231.996094 183.746094 232.113281 183.816406 232.203125 183.929688 C 232.289062 184.046875 232.324219 184.175781 232.304688 184.320312 C 232.285156 184.464844 232.21875 184.578125 232.101562 184.667969 C 231.988281 184.753906 231.859375 184.789062 231.714844 184.769531 C 231.105469 184.691406 230.574219 184.449219 230.109375 184.046875 C 230.4375 188.558594 229.675781 197.890625 218.917969 202.644531 C 215.742188 204.046875 212.917969 204.597656 210.445312 204.597656 Z M 210.445312 204.597656 " fill-opacity="1" fill-rule="nonzero"/><path fill="#3f120f" d="M 204.992188 183.980469 L 208.804688 184.871094 C 208.933594 183.097656 208.742188 181.355469 208.230469 179.652344 C 208.082031 179.152344 207.910156 178.675781 207.722656 178.210938 C 206.644531 177.585938 205.527344 177.359375 204.484375 177.664062 C 201.511719 178.535156 200.289062 183.296875 201.757812 188.304688 C 201.902344 188.804688 202.074219 189.285156 202.261719 189.75 C 203.339844 190.371094 204.457031 190.597656 205.5 190.292969 C 206.039062 190.113281 206.519531 189.835938 206.941406 189.457031 C 207.363281 189.082031 207.695312 188.636719 207.929688 188.121094 Z M 204.992188 183.980469 " fill-opacity="1" fill-rule="nonzero"/><path fill="#3f120f" d="M 217.21875 180.265625 L 220.976562 181.144531 C 221.242188 179.566406 221.25 177.984375 221 176.402344 C 220.917969 175.886719 220.8125 175.390625 220.6875 174.90625 C 219.703125 174.144531 218.625 173.773438 217.550781 173.9375 C 214.488281 174.40625 212.644531 178.96875 213.433594 184.125 C 213.515625 184.640625 213.621094 185.136719 213.746094 185.621094 C 214.730469 186.382812 215.808594 186.753906 216.882812 186.589844 C 218.15625 186.394531 219.214844 185.496094 219.964844 184.136719 Z M 217.21875 180.265625 " fill-opacity="1" fill-rule="nonzero"/><path fill="#3f120f" d="M 219.890625 193.1875 C 218.414062 193.1875 216.933594 192.363281 215.664062 190.816406 C 214.289062 189.140625 213.3125 186.792969 212.914062 184.207031 C 212.070312 178.675781 214.070312 173.9375 217.46875 173.421875 C 220.871094 172.902344 224.199219 176.828125 225.042969 182.355469 C 225.441406 184.941406 225.210938 187.472656 224.398438 189.484375 C 223.550781 191.585938 222.160156 192.886719 220.488281 193.140625 C 220.289062 193.171875 220.089844 193.1875 219.890625 193.1875 Z M 218.074219 174.425781 C 217.925781 174.425781 217.777344 174.4375 217.628906 174.460938 C 214.859375 174.882812 213.210938 179.183594 213.957031 184.046875 C 214.324219 186.453125 215.21875 188.621094 216.476562 190.152344 C 217.667969 191.609375 219.042969 192.300781 220.328125 192.105469 C 221.617188 191.90625 222.71875 190.835938 223.421875 189.089844 C 224.164062 187.253906 224.371094 184.917969 224.003906 182.515625 C 223.296875 177.910156 220.699219 174.425781 218.074219 174.425781 Z M 218.074219 174.425781 " fill-opacity="1" fill-rule="nonzero"/><path fill="#3f120f" d="M 208.808594 196.472656 C 205.808594 196.472656 202.648438 193.21875 201.25 188.453125 C 200.515625 185.941406 200.40625 183.402344 200.945312 181.304688 C 201.507812 179.105469 202.714844 177.636719 204.335938 177.160156 C 205.960938 176.6875 207.769531 177.28125 209.429688 178.828125 C 211.015625 180.308594 212.292969 182.503906 213.027344 185.019531 C 214.601562 190.386719 213.246094 195.347656 209.941406 196.308594 C 209.574219 196.417969 209.195312 196.472656 208.808594 196.472656 Z M 202.261719 188.160156 C 203.644531 192.882812 206.960938 196.085938 209.648438 195.300781 C 212.335938 194.515625 213.402344 190.035156 212.019531 185.3125 C 211.335938 182.980469 210.160156 180.949219 208.710938 179.59375 C 207.332031 178.3125 205.882812 177.804688 204.632812 178.171875 C 203.378906 178.535156 202.433594 179.742188 201.964844 181.5625 C 201.476562 183.484375 201.582031 185.828125 202.261719 188.160156 Z M 202.261719 188.160156 " fill-opacity="1" fill-rule="nonzero"/></svg>